<svg version="1.1" id="Layer_1" xmlns="http://www.w3.org/2000/svg" xmlns:xlink="http://www.w3.org/1999/xlink" x="0px" y="0px"
	 width="100%" viewBox="0 0 1920 1920" enable-background="new 0 0 1920 1920" xml:space="preserve">
<path fill="#FFFFFF" opacity="1.000000" stroke="none" 
	d="
M880.000000,1921.000000 
	C586.666687,1921.000000 293.833344,1921.000000 1.000000,1921.000000 
	C1.000000,1281.000000 1.000000,641.000000 1.000000,1.000000 
	C641.000000,1.000000 1281.000000,1.000000 1921.000000,1.000000 
	C1921.000000,641.000000 1921.000000,1281.000000 1921.000000,1921.000000 
	C1574.166626,1921.000000 1227.333374,1921.000000 880.000000,1921.000000 
M454.998779,1124.000000 
	C454.998779,1124.000000 455.021851,1123.975708 455.043823,1124.577148 
	C455.360992,1125.051392 455.678192,1125.525757 456.165497,1126.455688 
	C456.165497,1126.455688 456.020538,1126.920044 456.079224,1127.244019 
	C456.140198,1127.451660 456.247162,1127.631836 457.052277,1128.189087 
	C461.548920,1134.617554 465.794861,1141.241699 470.612671,1147.419678 
	C475.433624,1153.601685 480.352875,1159.852173 486.093262,1165.133545 
	C492.636475,1171.153442 499.955139,1176.393799 507.276733,1181.484009 
	C512.911316,1185.401245 519.071838,1188.561890 525.364441,1192.646973 
	C526.620178,1193.067383 527.875916,1193.487671 529.563721,1193.971436 
	C529.563721,1193.971436 529.952576,1194.170166 530.103210,1194.834351 
	C532.781799,1197.293213 535.433105,1199.821655 540.243591,1198.752686 
	C541.969849,1199.658813 543.607727,1200.839600 545.436279,1201.427734 
	C561.061218,1206.454224 576.745728,1210.936768 593.447876,1210.810547 
	C619.886353,1210.610718 646.328125,1210.851074 673.615417,1210.959351 
	C677.317200,1211.376831 678.285217,1209.306030 677.991150,1206.122437 
	C677.811829,1204.180176 677.390808,1202.239990 677.414917,1200.302979 
	C677.529053,1191.125000 677.710999,1181.946899 677.963196,1172.771484 
	C678.160645,1165.588135 679.205933,1158.345459 678.574890,1151.244751 
	C677.919617,1143.872314 683.345276,1135.616211 675.809692,1129.074341 
	C675.393616,1128.713135 675.683289,1127.576172 675.581421,1126.808716 
	C675.351013,1125.073608 675.081116,1123.343872 674.677795,1120.954590 
	C674.807495,1120.300293 674.937195,1119.645996 675.380310,1118.835083 
	C675.446655,1118.740479 675.590454,1118.604370 675.565857,1118.558228 
	C675.462769,1118.365723 675.309143,1118.200073 675.035522,1117.212280 
	C680.303162,1080.944214 694.309448,1048.405273 717.659363,1020.191895 
	C756.310425,973.489990 806.185181,947.977356 866.750916,946.524780 
	C926.046387,945.102478 985.400940,946.175781 1044.729370,946.059265 
	C1052.212158,946.044556 1059.732056,945.830994 1067.169434,945.070190 
	C1104.701904,941.230957 1137.172729,926.045959 1164.909912,900.643738 
	C1181.552002,885.402893 1194.266602,867.225586 1204.831055,846.913391 
	C1212.876465,844.533630 1210.321655,836.884521 1212.404053,831.546570 
	C1212.410034,831.531128 1211.581177,831.189880 1210.964355,830.288025 
	C1211.225220,829.167664 1211.486206,828.047241 1212.389526,826.650635 
	C1213.827026,824.255737 1215.797119,822.011658 1216.531860,819.417725 
	C1217.107666,817.384155 1216.154541,814.917603 1215.795776,811.839600 
	C1216.893311,803.896790 1217.990845,795.953979 1219.394165,787.832336 
	C1219.453003,787.731018 1219.585693,787.595032 1219.557251,787.534668 
	C1219.463379,787.334656 1219.311401,787.161987 1219.158203,786.061646 
	C1219.265137,782.406921 1219.372192,778.752197 1220.158691,774.756714 
	C1220.413696,773.498047 1220.891113,772.239502 1220.891968,770.980652 
	C1220.929077,717.398254 1220.935303,663.815796 1220.861572,610.233459 
	C1220.859619,608.789612 1219.937500,607.347046 1219.282349,605.043701 
	C1219.286255,602.703552 1219.290161,600.363403 1219.582153,597.807312 
	C1219.445312,597.532104 1219.308594,597.256836 1219.010376,596.133789 
	C1218.026611,583.722717 1216.146973,571.467834 1212.835083,558.603760 
	C1212.438721,551.522156 1210.836792,544.927917 1205.001831,539.472961 
	C1204.881470,539.135986 1204.761230,538.798950 1204.796021,537.744690 
	C1204.398682,537.233582 1204.001221,536.722473 1203.144897,535.704468 
	C1172.822144,474.934662 1123.514648,442.727783 1055.822266,437.603088 
	C1055.545532,437.696075 1055.268921,437.789093 1054.197754,437.952240 
	C1053.137451,437.896820 1052.077026,437.841400 1050.828491,437.483307 
	C1050.546265,437.577026 1050.264038,437.670746 1049.239502,437.870148 
	C1048.492798,437.831726 1047.745972,437.793335 1046.459229,437.291931 
	C1044.639038,437.442963 1042.818848,437.594025 1040.068237,437.857727 
	C984.044800,437.828369 928.021423,437.799011 871.450500,437.307861 
	C869.633728,437.509644 867.817017,437.711456 865.102173,438.021973 
	C855.435486,439.390076 845.537598,438.773865 836.060425,441.916565 
	C829.033325,444.246765 821.571899,445.377777 814.713928,448.082520 
	C803.547058,452.486572 792.064209,456.683868 781.926147,462.933594 
	C771.927246,469.097504 763.089478,477.327606 754.366882,485.331848 
	C743.990112,494.853973 735.091553,505.753723 727.518250,518.342651 
	C727.436768,518.700317 727.355286,519.057983 727.186340,519.744385 
	C727.186340,519.744385 726.952148,519.991211 726.497314,520.219971 
	C726.374695,520.524231 726.252075,520.828552 726.030396,520.988831 
	C726.030396,520.988831 726.141418,521.126831 725.400879,521.200928 
	C725.085144,522.238342 724.769409,523.275818 724.382019,524.361633 
	C724.382019,524.361633 724.371826,524.447510 723.636963,524.284607 
	C721.808228,527.928589 719.979492,531.572571 718.184937,535.646851 
	C718.184937,535.646851 717.921387,535.988647 717.437439,536.138855 
	C717.303772,536.433716 717.170105,536.728577 716.977051,537.036560 
	C716.977051,537.036560 716.951294,536.981445 716.182556,536.993469 
	C714.425049,538.396423 712.668701,539.800842 710.909607,541.201782 
	C708.880920,542.817444 706.656250,544.246033 704.885559,546.106812 
	C703.650879,547.404297 702.147400,549.392944 702.317383,550.897278 
	C702.772888,554.927063 703.975952,558.887451 705.091919,562.815796 
	C705.339294,563.686340 706.451355,564.311218 707.122742,565.721130 
	C706.745667,566.480774 706.368591,567.240417 705.268250,568.122742 
	C701.782532,572.377319 701.284790,576.314941 704.025452,579.741699 
	C703.993347,580.494507 703.961243,581.247375 703.192566,582.102783 
	C700.044373,584.245300 699.674194,586.531433 703.011841,589.656677 
	C702.676453,590.437805 702.341125,591.218872 701.243835,591.980347 
	C699.802429,590.135193 698.360962,588.290039 696.919556,586.444885 
	C696.740479,590.417542 697.888062,594.136292 697.915405,597.863281 
	C698.084045,620.839172 697.986816,643.816895 698.005615,666.794006 
	C698.014893,678.080261 704.851562,685.000000 715.916931,685.000000 
	C795.419189,685.000000 874.921387,685.000000 954.122375,685.000000 
	C954.980957,687.204041 955.915161,689.602051 956.997742,692.847839 
	C956.948059,694.565247 956.898376,696.282715 956.207214,698.117554 
	C953.172668,698.078369 950.138123,698.005066 947.103577,698.004883 
	C832.044922,697.999084 716.986206,697.999939 601.927551,698.001465 
	C600.595764,698.001465 599.020691,697.568787 597.980835,698.125610 
	C595.526794,699.439880 593.327515,701.230042 590.269531,702.992859 
	C588.501892,703.173340 586.734253,703.353821 584.400269,703.165649 
	C583.266052,703.125244 582.131775,703.084839 580.831055,702.252319 
	C575.868164,699.689758 571.197998,700.876282 566.383179,702.975891 
	C563.966248,704.029846 561.089355,704.755920 558.508301,704.546814 
	C553.890198,704.172668 551.091858,705.918152 549.417603,711.190979 
	C549.001648,711.156189 548.585693,711.121399 547.586670,710.665710 
	C547.714722,709.620728 547.874573,708.578491 547.963440,707.530212 
	C548.091553,706.017883 548.330383,704.480347 548.141479,703.002258 
	C548.099243,702.672119 545.929138,702.095093 545.679260,702.400696 
	C544.625793,703.689270 543.873474,705.241272 543.115723,706.749512 
	C542.355591,708.262512 542.131897,710.495056 540.939636,711.242554 
	C538.773926,712.600525 536.064636,713.091614 533.407898,714.004395 
	C533.567444,714.821716 533.784729,715.934814 533.390930,717.437134 
	C529.339478,719.412231 525.015259,720.975281 521.289246,723.441956 
	C511.264618,730.078735 501.495422,737.101440 491.240906,744.130493 
	C491.006317,744.326355 490.907898,744.575989 490.992340,744.935059 
	C490.992340,744.935059 490.927155,744.967346 490.187225,745.011963 
	C489.312103,745.303894 488.436981,745.595886 487.561829,745.887817 
	C487.956146,746.340515 488.350464,746.793213 488.420197,747.703064 
	C488.136566,747.945984 487.852936,748.188904 486.765381,748.221252 
	C484.005157,749.954956 481.256897,751.708069 478.481232,753.416626 
	C475.949127,754.975342 474.683472,756.978394 475.434784,760.390503 
	C472.763000,763.352173 469.642059,766.022827 467.500519,769.328003 
	C459.967072,780.955017 452.225128,792.371277 446.984070,805.451965 
	C439.791260,823.404175 433.793549,841.420898 433.587921,861.414795 
	C433.657288,862.298828 433.726654,863.182922 433.794006,864.995300 
	C433.737091,924.301208 433.680176,983.607178 433.210144,1043.545654 
	C433.165131,1045.344238 433.120117,1047.142944 433.009125,1049.671387 
	C433.307770,1050.780884 433.606415,1051.890381 434.020874,1053.665283 
	C434.005676,1054.114258 433.990479,1054.563354 433.562073,1055.328979 
	C433.725830,1055.886719 433.889587,1056.444458 434.223145,1057.660522 
	C434.382599,1058.773315 434.542053,1059.885986 434.258423,1061.605225 
	C433.980164,1063.211426 433.468933,1064.817383 433.466980,1066.423828 
	C433.460938,1071.421509 433.678741,1076.409058 438.205475,1080.808105 
	C438.304718,1081.770752 438.323547,1082.749634 438.515472,1083.693481 
	C440.759155,1094.727051 445.046509,1105.015869 449.996552,1115.833862 
	C449.632660,1118.975342 448.212891,1122.796631 454.194977,1122.180054 
	C454.194977,1122.180054 454.125366,1122.462891 454.207550,1123.084717 
	C454.480530,1123.384766 454.753510,1123.684692 454.998779,1124.000000 
M1422.948242,1184.071899 
	C1425.671143,1183.888428 1427.867554,1183.115234 1427.941040,1180.010620 
	C1427.941040,1180.010620 1427.776855,1179.765991 1428.536255,1179.859619 
	C1431.265747,1178.538940 1435.557861,1177.867188 1436.427002,1175.774048 
	C1438.881470,1169.862549 1444.082642,1167.903320 1447.449829,1165.740479 
	C1449.238770,1161.980835 1450.167725,1159.156006 1451.798218,1156.821045 
	C1453.872192,1153.851074 1457.012207,1151.569580 1458.821533,1148.480957 
	C1465.348755,1137.338745 1472.894775,1126.501221 1477.374878,1114.543945 
	C1481.005859,1104.853027 1485.694702,1095.177979 1486.278564,1084.283447 
	C1486.803711,1074.483521 1489.739990,1064.763794 1489.806396,1054.996460 
	C1490.172119,1001.184570 1489.873535,947.368530 1490.040161,893.554688 
	C1490.105469,872.442810 1489.891724,851.451904 1482.063354,831.383789 
	C1477.523926,819.747253 1474.087036,807.533081 1468.252563,796.592834 
	C1462.942383,786.635437 1455.127075,777.999817 1448.245483,768.910828 
	C1447.268921,767.621033 1445.326660,767.062378 1444.000000,766.002441 
	C1444.000000,766.002441 1443.834961,766.169434 1443.895142,765.438538 
	C1441.244141,762.091064 1438.652344,758.694336 1435.924072,755.411133 
	C1433.580933,752.591492 1433.294067,747.188293 1427.451294,748.548950 
	C1426.983887,748.657837 1426.299805,747.460815 1425.609375,747.050842 
	C1421.679077,744.717041 1417.716187,742.437927 1413.375366,739.990356 
	C1413.375366,739.990356 1413.068726,739.708191 1412.922363,739.094543 
	C1412.212402,738.771667 1411.502441,738.448792 1410.393921,738.013916 
	C1410.393921,738.013916 1410.059082,737.770264 1409.952637,737.100220 
	C1409.217163,736.225769 1408.645752,735.084167 1407.721680,734.516602 
	C1392.222900,724.997009 1375.134766,719.097717 1358.027954,713.415283 
	C1353.771851,712.001404 1348.718872,712.986145 1343.371216,712.924561 
	C1342.938965,712.841187 1342.506836,712.757812 1341.892212,711.950989 
	C1341.319824,711.386292 1340.740479,710.324768 1340.176147,710.332642 
	C1333.458130,710.426636 1326.742554,710.679871 1319.090576,710.993164 
	C1296.716797,710.953735 1274.343140,710.914246 1251.554810,710.402161 
	C1250.691528,710.908630 1249.828125,711.415100 1248.999634,712.868225 
	C1248.951050,734.913025 1248.902466,756.957764 1248.408203,779.388062 
	C1248.546631,780.257324 1248.685059,781.126526 1248.922852,782.732300 
	C1248.868530,783.470825 1248.814209,784.209351 1248.026611,785.201904 
	C1247.688599,787.083374 1247.274536,788.954773 1247.025269,790.847961 
	C1245.839233,799.858276 1245.491211,809.069092 1243.339844,817.839417 
	C1240.655762,828.782288 1236.523193,839.372009 1232.967773,850.098206 
	C1231.335571,855.022461 1229.588745,859.908752 1227.917847,864.911316 
	C1227.917847,864.911316 1227.816040,864.914734 1227.152466,865.074463 
	C1226.142090,866.736389 1225.312988,868.551208 1224.073608,870.019958 
	C1222.659302,871.695984 1220.879883,873.063660 1219.255371,874.568726 
	C1219.160889,875.591492 1219.541992,877.453186 1218.798218,878.557373 
	C1213.413452,886.552856 1207.772583,894.375549 1202.296753,902.310913 
	C1201.592163,903.331970 1201.370850,904.686523 1200.976929,905.966858 
	C1200.976929,905.966858 1200.886475,905.937012 1200.204468,906.039307 
	C1198.576050,907.397949 1196.870117,908.674744 1195.332520,910.129272 
	C1187.854004,917.203308 1180.947754,925.010437 1172.834106,931.251770 
	C1163.238159,938.633057 1153.733398,946.530090 1141.798218,950.257202 
	C1141.198364,950.444519 1140.755127,951.084961 1140.168335,951.368591 
	C1132.794312,954.933167 1125.540283,958.797913 1117.968262,961.879333 
	C1114.099976,963.453552 1108.950928,962.515137 1105.626221,964.650940 
	C1099.782837,968.404663 1093.719727,969.668396 1087.091919,970.125305 
	C1083.058960,970.403259 1079.039062,971.225525 1075.088745,972.132080 
	C1073.904297,972.403931 1072.973877,973.783508 1071.279785,974.830505 
	C1070.834717,974.820618 1070.389526,974.810730 1069.316895,974.280457 
	C1068.829224,974.189819 1068.341675,974.019836 1067.854004,974.019836 
	C1000.067993,974.016174 932.281982,973.997131 864.496277,974.142456 
	C861.971802,974.147888 859.450745,975.760437 856.118835,976.817444 
	C854.733398,976.830261 853.348022,976.843140 851.383545,976.330078 
	C849.240845,976.283569 846.995056,975.796509 844.973755,976.269165 
	C837.377014,978.045715 829.708740,979.709534 822.339050,982.214905 
	C813.077332,985.363464 803.986023,989.075378 795.010559,992.979614 
	C790.073181,995.127258 785.558655,998.232849 780.779663,1000.767334 
	C779.355835,1001.522461 777.341858,1001.402527 776.184265,1002.378540 
	C772.447998,1005.528687 769.116272,1009.158325 765.382385,1012.311707 
	C760.836914,1016.150574 755.126221,1018.791809 753.000000,1025.000000 
	C753.000000,1025.000000 752.970276,1024.983887 752.267822,1025.039917 
	C749.738647,1027.194336 746.952576,1029.115723 744.738708,1031.556274 
	C741.146362,1035.516479 737.614502,1039.606079 734.646912,1044.036133 
	C731.982056,1048.014526 730.111145,1052.524780 727.896301,1056.904297 
	C727.896301,1056.904297 727.792358,1056.899780 727.133362,1057.026978 
	C722.467773,1060.589844 720.602112,1065.799683 718.424927,1070.990356 
	C714.000244,1081.539307 708.740051,1091.749878 706.474976,1103.101685 
	C705.572693,1107.623901 704.152344,1112.078979 703.667603,1116.639038 
	C703.022766,1122.704712 703.061707,1128.843018 702.920105,1135.746582 
	C702.868652,1136.814331 702.817261,1137.882080 702.026306,1139.202637 
	C701.691040,1141.083740 701.064636,1142.964722 701.062866,1144.846069 
	C701.008789,1201.961914 700.980225,1259.077881 701.059570,1316.193604 
	C701.069519,1323.358643 701.532166,1330.537476 702.156494,1337.677368 
	C702.318604,1339.530273 703.885010,1341.260376 704.937744,1343.691406 
	C704.948181,1344.129639 704.958618,1344.567871 704.414062,1345.532227 
	C704.341980,1347.004517 703.838074,1348.618408 704.267212,1349.926270 
	C707.313354,1359.212158 709.989685,1368.679443 713.877930,1377.612671 
	C718.123474,1387.366699 723.516785,1396.623779 728.469055,1406.066528 
	C731.426453,1411.705444 734.449707,1417.311646 737.567505,1422.862915 
	C738.061279,1423.742065 739.247437,1424.213379 740.053650,1424.939575 
	C742.998291,1427.592285 746.900330,1429.761475 748.618652,1433.061890 
	C751.271301,1438.156982 755.522827,1439.984619 760.230469,1441.774658 
	C760.230469,1441.774658 760.320862,1441.736816 760.169495,1442.460083 
	C760.901917,1443.508911 761.438843,1444.801514 762.396423,1445.569702 
	C774.435303,1455.228638 787.377136,1463.451172 801.308472,1470.146973 
	C814.625488,1476.547607 828.665039,1480.533569 843.161621,1482.952637 
	C850.819092,1484.230469 858.561401,1485.811523 866.270630,1485.839844 
	C930.093811,1486.072510 993.918396,1486.050537 1057.741821,1485.859253 
	C1064.290161,1485.839600 1070.888794,1484.494751 1077.365112,1483.250122 
	C1085.073242,1481.768677 1092.680664,1479.757446 1100.320312,1477.927856 
	C1111.615356,1475.223022 1121.917847,1470.058716 1131.904663,1464.398804 
	C1139.031860,1460.359619 1145.832153,1455.647339 1152.381348,1450.708862 
	C1160.056274,1444.921997 1168.175049,1439.540283 1174.089478,1431.727417 
	C1181.380737,1422.096069 1188.763062,1412.525879 1195.776367,1402.693970 
	C1203.527832,1391.827515 1209.259277,1379.869873 1212.751099,1366.982544 
	C1214.890015,1359.088501 1216.299316,1350.996704 1218.775635,1342.998535 
	C1219.517090,1342.999023 1220.258545,1342.999512 1221.000000,1343.936035 
	C1221.002686,1348.720459 1220.871948,1353.511353 1221.101318,1358.284790 
	C1221.158813,1359.482056 1222.373169,1360.623901 1223.055664,1361.791138 
	C1224.299194,1360.907349 1226.306885,1360.243774 1226.637329,1359.096924 
	C1227.487915,1356.145752 1227.885742,1352.985229 1227.937012,1349.899536 
	C1228.032227,1344.161255 1226.832642,1343.130005 1221.285645,1342.344116 
	C1222.503906,1340.737427 1223.442261,1338.749146 1225.000610,1337.606079 
	C1227.949585,1335.443115 1227.591797,1333.786011 1224.886108,1331.978271 
	C1224.084351,1331.442627 1223.223145,1330.995605 1222.389282,1330.507935 
	C1222.740479,1330.323975 1223.091797,1330.140015 1223.443115,1329.956055 
	C1222.610718,1327.626709 1221.778320,1325.297485 1220.956665,1322.072144 
	C1220.963135,1319.379761 1220.969482,1316.687500 1221.714722,1313.923340 
	C1225.811768,1313.113037 1226.950684,1309.897217 1226.917480,1306.505249 
	C1226.728027,1287.141357 1226.385132,1267.777954 1225.916626,1248.418823 
	C1225.850098,1245.674438 1224.803223,1242.968750 1220.378662,1244.721558 
	C1219.258911,1243.498535 1218.139282,1242.275513 1216.574707,1240.494019 
	C1204.890625,1240.614258 1193.205322,1240.895142 1181.522705,1240.811035 
	C1169.158325,1240.722046 1156.797607,1240.180786 1144.433105,1240.031738 
	C1132.698242,1239.890259 1120.958984,1239.897949 1109.223999,1240.035767 
	C1101.273804,1240.129028 1093.326294,1240.819336 1085.379761,1240.782227 
	C1072.682495,1240.722778 1059.988159,1240.137939 1047.290527,1240.034790 
	C1030.063477,1239.894897 1012.834412,1239.992676 995.606262,1240.004517 
	C990.194885,1240.008179 984.464294,1238.961060 979.463013,1240.409180 
	C974.574402,1241.824707 970.465088,1240.965698 966.001831,1239.069458 
	C966.006226,1234.711304 966.010559,1230.353271 966.814392,1225.898193 
	C968.267151,1225.599487 969.717651,1225.056030 971.173096,1225.042480 
	C979.851990,1224.960938 988.532166,1224.978882 997.211548,1225.025879 
	C998.520325,1225.032959 999.824219,1225.488159 1001.135986,1225.522827 
	C1003.757690,1225.592407 1006.384399,1225.552124 1009.007141,1225.485840 
	C1011.315552,1225.427490 1013.620361,1225.213379 1015.928650,1225.173340 
	C1019.344299,1225.114136 1022.762390,1225.099121 1026.177856,1225.159546 
	C1028.484741,1225.200317 1030.787354,1225.463501 1033.094482,1225.517700 
	C1035.716919,1225.579224 1038.342285,1225.525391 1040.966309,1225.510254 
	C1043.590332,1225.494995 1046.214355,1225.456665 1048.838379,1225.444336 
	C1051.619263,1225.431274 1054.400024,1225.425659 1057.180908,1225.438599 
	C1059.804932,1225.450684 1062.429077,1225.500977 1065.053101,1225.516235 
	C1067.677124,1225.531372 1070.301270,1225.537964 1072.925171,1225.522827 
	C1075.549316,1225.507568 1078.173096,1225.443726 1080.797241,1225.431763 
	C1083.578003,1225.419067 1086.359009,1225.438110 1089.139893,1225.451172 
	C1091.763916,1225.463623 1094.387939,1225.488525 1097.011963,1225.503662 
	C1099.635986,1225.518921 1102.260132,1225.528931 1104.884155,1225.541504 
	C1107.665039,1225.554688 1110.445923,1225.587891 1113.226685,1225.575317 
	C1115.850830,1225.563477 1118.474609,1225.485107 1121.098755,1225.469849 
	C1123.722656,1225.454590 1126.346802,1225.475952 1128.970825,1225.491211 
	C1131.594849,1225.506470 1134.218994,1225.541870 1136.843018,1225.554077 
	C1139.623901,1225.566895 1142.404663,1225.575684 1145.185547,1225.562866 
	C1147.809692,1225.550781 1150.433594,1225.497681 1153.057739,1225.482422 
	C1155.681641,1225.467163 1158.305908,1225.463257 1160.929810,1225.478516 
	C1163.553955,1225.493774 1166.177734,1225.554565 1168.801880,1225.566650 
	C1171.582642,1225.579346 1174.363525,1225.563477 1177.144409,1225.550415 
	C1179.768433,1225.538086 1182.392578,1225.510132 1185.016602,1225.494873 
	C1187.640625,1225.479492 1190.264648,1225.472168 1192.888672,1225.459839 
	C1195.669556,1225.446655 1198.450562,1225.410645 1201.231323,1225.423218 
	C1203.855469,1225.434937 1206.479248,1225.516357 1209.103394,1225.531616 
	C1211.727295,1225.546997 1214.351440,1225.522827 1216.975464,1225.507568 
	C1219.599487,1225.492310 1222.223511,1225.459595 1224.847534,1225.447266 
	C1227.628418,1225.434204 1230.409424,1225.422974 1233.190186,1225.435791 
	C1235.814331,1225.447754 1238.438110,1225.503784 1241.062256,1225.519043 
	C1243.686157,1225.534302 1246.310547,1225.535400 1248.934448,1225.520142 
	C1251.558594,1225.504883 1254.182373,1225.446777 1256.806519,1225.434692 
	C1259.587280,1225.421875 1262.368164,1225.435303 1265.149048,1225.448364 
	C1267.773071,1225.460571 1270.397095,1225.491089 1273.021118,1225.506348 
	C1275.645142,1225.521606 1278.269409,1225.547974 1280.893311,1225.532715 
	C1283.517456,1225.517456 1286.141235,1225.434082 1288.765381,1225.422241 
	C1291.546143,1225.409546 1294.327148,1225.447510 1297.108032,1225.460693 
	C1299.732056,1225.473145 1302.411865,1225.142456 1304.968506,1225.562988 
	C1310.448730,1226.464355 1315.959595,1227.428223 1321.280029,1228.977783 
	C1326.176880,1230.403931 1328.824097,1226.815186 1332.128296,1224.864746 
	C1333.795898,1223.880493 1334.732788,1221.657837 1336.830933,1219.983643 
	C1338.215454,1219.966309 1339.600098,1219.948975 1340.986450,1220.686401 
	C1340.934814,1221.178711 1340.725220,1221.720337 1340.860352,1222.154541 
	C1341.329712,1223.662476 1341.572144,1225.500977 1342.600952,1226.471313 
	C1343.162109,1227.000488 1345.133667,1226.033691 1346.469238,1225.741455 
	C1346.037842,1224.180176 1345.664307,1222.599609 1345.150024,1221.066040 
	C1344.904175,1220.332886 1344.391724,1219.689087 1344.803101,1218.890503 
	C1355.955811,1215.943481 1367.115723,1213.022827 1378.254272,1210.023560 
	C1380.129272,1209.518555 1381.987427,1208.823242 1383.723999,1207.956787 
	C1389.454468,1205.097534 1395.128906,1202.126099 1400.804688,1199.159302 
	C1400.999146,1199.057617 1400.979370,1198.546021 1401.370850,1197.968872 
	C1401.370850,1197.968872 1401.756470,1197.849731 1402.533325,1197.951660 
	C1405.313232,1196.645630 1408.382690,1195.732178 1410.807617,1193.944580 
	C1414.796143,1191.004395 1418.366943,1187.497681 1422.106812,1184.119873 
	C1422.106812,1184.119873 1422.216919,1184.123657 1422.948242,1184.071899 
M1232.182983,1369.165894 
	C1229.218262,1368.105957 1226.020630,1367.077881 1225.159302,1371.498291 
	C1224.353516,1375.633301 1223.369141,1379.914062 1226.334473,1383.859619 
	C1227.133057,1384.922119 1227.094238,1386.598633 1227.501099,1387.975098 
	C1227.927612,1389.417725 1228.294678,1390.911011 1229.002686,1392.210571 
	C1229.153198,1392.486816 1231.274170,1392.263672 1231.435303,1391.855225 
	C1231.978394,1390.479370 1232.055298,1388.917603 1232.295776,1387.424561 
	C1232.793823,1384.332031 1232.253662,1380.369141 1233.983521,1378.320557 
	C1237.904297,1373.677490 1238.225830,1372.760376 1232.182983,1369.165894 
M1105.347168,1479.097656 
	C1104.768677,1479.434570 1104.190186,1479.771362 1103.611816,1480.108398 
	C1104.109131,1480.368164 1104.852295,1480.965942 1105.053833,1480.819214 
	C1105.507690,1480.489136 1105.693115,1479.790161 1105.347168,1479.097656 
M747.288452,1438.450684 
	C747.011780,1438.714233 746.735168,1438.977905 746.458496,1439.241455 
	C746.567810,1439.355957 746.766052,1439.575928 746.773560,1439.569580 
	C747.065308,1439.323608 747.339722,1439.057007 747.288452,1438.450684 
M537.432312,1200.484985 
	C537.432312,1200.484985 537.522644,1200.435303 537.432312,1200.484985 
z"/>
<path fill="#346C99" opacity="1.000000" stroke="none" 
	d="
M434.701477,1060.998779 
	C434.542053,1059.885986 434.382599,1058.773315 434.259338,1057.151611 
	C434.188782,1056.099243 434.082001,1055.555786 433.975250,1055.012329 
	C433.990479,1054.563354 434.005676,1054.114258 434.039978,1052.942749 
	C433.988251,1051.164307 433.917358,1050.108276 433.920715,1048.615967 
	C433.871033,1046.423950 433.747131,1044.668579 433.623260,1042.913086 
	C433.680176,983.607178 433.737091,924.301208 433.923584,864.162598 
	C434.035980,862.555054 434.018799,861.780212 434.001587,861.005371 
	C433.793549,841.420898 439.791260,823.404175 446.984070,805.451965 
	C452.225128,792.371277 459.967072,780.955017 467.500519,769.328003 
	C469.642059,766.022827 472.763000,763.352173 476.046265,760.115967 
	C480.294891,756.038269 483.932098,752.234985 487.569305,748.431763 
	C487.852936,748.188904 488.136566,747.945984 488.851776,747.395569 
	C489.831299,746.381165 490.379242,745.674255 490.927155,744.967346 
	C490.927155,744.967346 490.992340,744.935059 491.119751,744.786560 
	C491.416718,744.440430 491.542633,744.218079 491.624817,743.970947 
	C501.495422,737.101440 511.264618,730.078735 521.289246,723.441956 
	C525.015259,720.975281 529.339478,719.412231 534.062500,717.171021 
	C539.212585,714.965393 543.691162,713.026001 548.169739,711.086548 
	C548.585693,711.121399 549.001648,711.156189 550.086914,711.106201 
	C555.505310,709.657349 560.254333,708.293213 565.396851,706.972412 
	C568.260193,706.386047 570.729980,705.756226 573.405396,705.125610 
	C573.610901,705.124695 573.994568,704.977112 574.426880,705.023254 
	C578.228271,704.557678 581.597473,704.045959 584.966614,703.534302 
	C586.734253,703.353821 588.501892,703.173340 591.109497,702.981567 
	C610.444336,702.878601 628.939270,702.713318 647.434204,702.707886 
	C739.583740,702.680664 831.733337,702.698486 923.882874,702.691284 
	C934.546692,702.690491 945.210449,702.632996 956.125366,702.679688 
	C956.542725,702.483032 956.708984,702.208374 956.942261,701.543335 
	C956.955688,700.102051 956.902161,699.051086 956.848694,698.000122 
	C956.898376,696.282715 956.948059,694.565247 957.000366,691.965027 
	C956.962585,686.732178 956.922180,682.382080 956.726929,677.631042 
	C951.714783,677.210632 946.857544,677.191284 941.585693,677.126526 
	C939.782776,677.111389 938.394470,677.141602 936.555237,677.081055 
	C932.736267,677.050842 929.368286,677.111389 925.585693,677.126587 
	C923.782776,677.111389 922.394470,677.141602 920.555237,677.081055 
	C916.736267,677.050842 913.368286,677.111328 909.585693,677.126526 
	C907.782776,677.111389 906.394470,677.141602 904.555237,677.081055 
	C900.736267,677.050842 897.368286,677.111328 893.585693,677.126526 
	C891.782776,677.111389 890.394470,677.141602 888.555237,677.081055 
	C884.736267,677.050842 881.368286,677.111389 877.585693,677.126526 
	C875.782776,677.111389 874.394470,677.141602 872.555237,677.081055 
	C868.736267,677.050842 865.368286,677.111389 861.585693,677.126587 
	C859.782776,677.111389 858.394470,677.141602 856.555237,677.081055 
	C852.736267,677.050842 849.368286,677.111389 845.585693,677.126587 
	C843.782776,677.111389 842.394470,677.141602 840.555237,677.081055 
	C836.736267,677.050842 833.368286,677.111328 829.585693,677.126526 
	C827.782776,677.111389 826.394470,677.141602 824.555237,677.081055 
	C820.736267,677.050842 817.368286,677.111389 813.585693,677.126526 
	C811.782776,677.111389 810.394470,677.141602 808.555237,677.081055 
	C804.736267,677.050842 801.368286,677.111389 797.585693,677.126526 
	C795.782776,677.111389 794.394470,677.141602 792.555237,677.081055 
	C788.736267,677.050842 785.368286,677.111389 781.585693,677.126587 
	C779.782776,677.111389 778.394470,677.141602 776.555237,677.081055 
	C772.736267,677.050903 769.368286,677.111389 765.585693,677.126587 
	C763.782776,677.111389 762.394470,677.141602 760.555237,677.081055 
	C756.736267,677.050842 753.368286,677.111328 749.585693,677.126526 
	C747.782776,677.111389 746.394470,677.141602 744.555237,677.081055 
	C740.736267,677.050842 737.368286,677.111389 733.585693,677.126526 
	C731.782776,677.111389 730.394470,677.141602 728.545044,677.080627 
	C719.731506,676.984253 711.379211,676.979004 702.901123,676.520935 
	C702.727417,652.378601 702.679443,628.689087 702.753784,604.676147 
	C702.822510,603.900635 702.768799,603.448547 702.770813,602.558105 
	C702.552917,598.746582 702.279358,595.373291 702.005737,592.000000 
	C702.341125,591.218872 702.676453,590.437805 703.002930,588.930054 
	C703.305664,586.135620 703.617371,584.067932 703.929077,582.000183 
	C703.961243,581.247375 703.993347,580.494507 704.180786,579.025879 
	C704.887939,574.873352 705.439697,571.436646 705.991516,568.000000 
	C706.368591,567.240417 706.745667,566.480774 707.489441,565.190796 
	C708.592834,561.886353 709.176392,559.060303 710.096680,556.348572 
	C712.297180,549.864197 714.656250,543.433716 716.951294,536.981445 
	C716.951294,536.981445 716.977051,537.036560 717.201477,536.892700 
	C717.750916,536.599670 717.916077,536.346252 717.921387,535.988647 
	C717.921387,535.988647 718.184937,535.646851 718.400391,535.178589 
	C720.534546,531.289368 722.453186,527.868408 724.371826,524.447510 
	C724.371826,524.447510 724.382019,524.361633 724.675903,524.165161 
	C725.360291,523.021423 725.750854,522.074097 726.141418,521.126831 
	C726.141418,521.126831 726.030396,520.988831 726.318970,520.955872 
	C726.722412,520.612366 726.837280,520.301758 726.952148,519.991211 
	C726.952148,519.991211 727.186340,519.744385 727.475586,519.421082 
	C727.835510,518.732727 727.906311,518.367737 727.977112,518.002686 
	C735.091553,505.753723 743.990112,494.853973 754.366882,485.331848 
	C763.089478,477.327606 771.927246,469.097504 781.926147,462.933594 
	C792.064209,456.683868 803.547058,452.486572 814.713928,448.082520 
	C821.571899,445.377777 829.033325,444.246765 836.060425,441.916565 
	C845.537598,438.773865 855.435486,439.390076 865.973633,438.058105 
	C868.562744,437.986023 870.280334,437.877838 871.997986,437.769653 
	C928.021423,437.799011 984.044800,437.828369 1040.951172,437.915649 
	C1043.555786,437.900696 1045.277588,437.827789 1046.999268,437.754913 
	C1047.745972,437.793335 1048.492798,437.831726 1049.867676,437.899902 
	C1050.669556,437.881805 1050.843140,437.833893 1051.016724,437.785980 
	C1052.077026,437.841400 1053.137451,437.896820 1054.846436,437.998962 
	C1055.665039,437.999084 1055.835205,437.952484 1056.005249,437.905914 
	C1123.514648,442.727783 1172.822144,474.934662 1203.449585,536.265015 
	C1204.049805,537.370972 1204.345337,537.916443 1204.640869,538.461975 
	C1204.761230,538.798950 1204.881470,539.135986 1205.156006,540.064270 
	C1207.748291,546.936768 1210.186646,553.217957 1212.625000,559.499146 
	C1216.146973,571.467834 1218.026611,583.722717 1219.059082,596.825439 
	C1219.169678,597.685791 1219.231812,597.854492 1219.293945,598.023254 
	C1219.290161,600.363403 1219.286255,602.703552 1219.236694,605.933960 
	C1219.168823,661.930359 1219.144653,717.036560 1219.139160,772.142761 
	C1219.139038,773.127686 1219.360840,774.112549 1219.479126,775.097473 
	C1219.372192,778.752197 1219.265137,782.406921 1219.074463,786.771790 
	C1219.023315,787.658386 1219.055786,787.834778 1219.088379,788.011169 
	C1217.990845,795.953979 1216.893311,803.896790 1215.571533,812.519897 
	C1214.147217,817.775818 1212.947266,822.351318 1211.747192,826.926880 
	C1211.486206,828.047241 1211.225220,829.167664 1210.945068,830.994385 
	C1208.663330,836.800903 1206.400879,841.901062 1204.138428,847.001221 
	C1194.266602,867.225586 1181.552002,885.402893 1164.909912,900.643738 
	C1137.172729,926.045959 1104.701904,941.230957 1067.169434,945.070190 
	C1059.732056,945.830994 1052.212158,946.044556 1044.729370,946.059265 
	C985.400940,946.175781 926.046387,945.102478 866.750916,946.524780 
	C806.185181,947.977356 756.310425,973.489990 717.659363,1020.191895 
	C694.309448,1048.405273 680.303162,1080.944214 675.004211,1117.852051 
	C675.004211,1118.658569 675.035583,1118.825195 675.066895,1118.991699 
	C674.937195,1119.645996 674.807495,1120.300293 674.536377,1121.642090 
	C673.915649,1130.439087 673.113647,1138.544556 673.019775,1146.658447 
	C672.772034,1168.072021 672.831360,1189.489380 672.768494,1210.905273 
	C646.328125,1210.851074 619.886353,1210.610718 593.447876,1210.810547 
	C576.745728,1210.936768 561.061218,1206.454224 545.436279,1201.427734 
	C543.607727,1200.839600 541.969849,1199.658813 539.669434,1198.397217 
	C536.047729,1196.751221 533.000183,1195.460693 529.952576,1194.170166 
	C529.952576,1194.170166 529.563721,1193.971436 529.148071,1193.665283 
	C527.487732,1192.925781 526.243103,1192.492432 524.998474,1192.059082 
	C519.071838,1188.561890 512.911316,1185.401245 507.276733,1181.484009 
	C499.955139,1176.393799 492.636475,1171.153442 486.093262,1165.133545 
	C480.352875,1159.852173 475.433624,1153.601685 470.612671,1147.419678 
	C465.794861,1141.241699 461.548920,1134.617554 456.709961,1127.829956 
	C456.333160,1127.236328 456.217438,1127.052734 456.020538,1126.920044 
	C456.020538,1126.920044 456.165497,1126.455688 456.122253,1125.924683 
	C455.726624,1124.921021 455.374237,1124.448364 455.021851,1123.975708 
	C455.021851,1123.975708 454.998779,1124.000000 454.975555,1123.682007 
	C454.676697,1123.063599 454.401031,1122.763306 454.125366,1122.462891 
	C454.125366,1122.462891 454.194977,1122.180054 454.045837,1121.742432 
	C452.597626,1119.223145 451.298523,1117.141357 449.999420,1115.059570 
	C445.046509,1105.015869 440.759155,1094.727051 438.515472,1083.693481 
	C438.323547,1082.749634 438.304718,1081.770752 438.124756,1079.985596 
	C436.929840,1073.108276 435.815643,1067.053467 434.701477,1060.998779 
M835.255005,517.105469 
	C834.326965,516.736755 833.413818,516.324158 832.468750,516.005859 
	C813.024292,509.456573 795.309998,512.905640 780.802673,527.181763 
	C765.632263,542.110352 761.832642,560.700867 769.629028,580.449280 
	C777.374329,600.068420 792.890808,610.379089 813.902954,611.560791 
	C836.651672,612.840149 857.621094,596.518066 863.363220,573.748535 
	C869.023804,551.302307 857.884033,528.440247 835.255005,517.105469 
z"/>
<path fill="#FFCD3C" opacity="1.000000" stroke="none" 
	d="
M1248.759766,784.947876 
	C1248.814209,784.209351 1248.868530,783.470825 1248.974121,781.997070 
	C1248.968140,780.508728 1248.911011,779.755676 1248.854004,779.002563 
	C1248.902466,756.957764 1248.951050,734.913025 1249.304932,712.331787 
	C1250.396729,711.488525 1251.182983,711.181641 1251.969360,710.874756 
	C1274.343140,710.914246 1296.716797,710.953735 1319.889648,711.174011 
	C1327.817383,711.794739 1334.945923,712.234558 1342.074585,712.674438 
	C1342.506836,712.757812 1342.938965,712.841187 1343.978760,713.145630 
	C1364.480835,717.218262 1383.690308,722.992737 1401.299805,733.352661 
	C1404.112427,735.007385 1407.134033,736.306641 1410.059082,737.770264 
	C1410.059082,737.770264 1410.393921,738.013916 1410.696655,738.360657 
	C1411.689209,739.040955 1412.378906,739.374573 1413.068726,739.708191 
	C1413.068726,739.708191 1413.375366,739.990356 1413.677734,740.386597 
	C1419.386230,745.154053 1424.873535,749.429688 1430.174438,753.925171 
	C1434.836304,757.878784 1439.289551,762.078430 1443.834961,766.169434 
	C1443.834961,766.169434 1444.000000,766.002441 1443.995605,766.415649 
	C1448.799683,773.357544 1453.597900,779.894043 1458.419434,786.413269 
	C1467.374390,798.521301 1473.799438,811.985352 1478.850708,826.051636 
	C1485.957520,845.842529 1487.974731,866.536621 1488.032593,887.398438 
	C1488.177734,939.894592 1488.414551,992.394897 1487.863892,1044.885620 
	C1487.713379,1059.226318 1485.968140,1073.755493 1483.101074,1087.820190 
	C1476.909790,1118.191895 1462.051514,1144.240112 1440.442993,1166.447144 
	C1436.170654,1170.837891 1431.996338,1175.323853 1427.776855,1179.765991 
	C1427.776855,1179.765991 1427.941040,1180.010620 1427.524292,1179.941528 
	C1425.477295,1181.289551 1423.847168,1182.706543 1422.216919,1184.123657 
	C1422.216919,1184.123657 1422.106812,1184.119873 1421.760742,1184.173584 
	C1414.862061,1188.768066 1408.309326,1193.308960 1401.756470,1197.849731 
	C1401.756470,1197.849731 1401.370850,1197.968872 1400.845337,1198.089600 
	C1398.160156,1199.077637 1395.914185,1199.777100 1393.854126,1200.838013 
	C1369.285889,1213.488892 1343.092407,1219.027588 1315.576538,1219.022705 
	C1200.839844,1219.002319 1086.103027,1219.019409 971.366272,1219.026123 
	C969.868713,1219.026123 968.328735,1218.871826 966.892273,1219.179932 
	C966.209534,1219.326294 965.724243,1220.392944 965.088928,1221.452881 
	C965.057556,1223.243042 965.086853,1224.622925 964.891724,1226.336426 
	C964.667358,1232.664307 964.667358,1238.658691 964.667358,1244.831665 
	C970.836609,1244.831665 975.908264,1244.831665 981.446899,1244.886230 
	C1059.266479,1244.954956 1136.619141,1244.969849 1213.971802,1244.975220 
	C1214.965942,1244.975220 1215.960083,1244.852539 1217.322998,1244.993652 
	C1218.141846,1247.033203 1218.973389,1248.864014 1218.984619,1250.699829 
	C1219.130981,1274.817139 1219.161621,1298.935181 1219.150269,1323.423828 
	C1219.113525,1324.546997 1219.147949,1325.299194 1218.937500,1326.359863 
	C1218.252319,1331.469238 1217.811890,1336.270264 1217.252686,1341.382690 
	C1217.135132,1342.136108 1217.136230,1342.578125 1216.902832,1343.302979 
	C1216.236206,1344.844238 1215.599487,1346.071411 1215.403198,1347.365479 
	C1213.391846,1360.630859 1208.804932,1373.044800 1203.155762,1385.130737 
	C1192.210205,1408.548096 1176.781372,1428.544067 1156.841553,1444.922607 
	C1124.319458,1471.636230 1086.700195,1484.016724 1044.792114,1483.995728 
	C999.307800,1483.972900 953.823303,1484.081177 908.339233,1483.972534 
	C883.419556,1483.913086 858.414185,1485.067749 833.847412,1479.147705 
	C819.390137,1475.663818 805.368958,1470.881348 792.599487,1463.338379 
	C781.470032,1456.764160 771.052734,1448.984131 760.320862,1441.736816 
	C760.320862,1441.736816 760.230469,1441.774658 760.129761,1441.426270 
	C758.305176,1439.275635 756.629272,1437.424683 754.850281,1435.678711 
	C732.178955,1413.427856 716.477844,1387.106689 708.372375,1356.320679 
	C707.370239,1352.514282 706.109802,1348.776001 704.969055,1345.006104 
	C704.958618,1344.567871 704.948181,1344.129639 704.955139,1342.915771 
	C704.305847,1332.697632 703.094849,1323.256958 703.062439,1313.812134 
	C702.877258,1259.846313 702.977234,1205.879395 702.963623,1151.912842 
	C702.962524,1147.591797 702.834778,1143.270874 702.765869,1138.949829 
	C702.817261,1137.882080 702.868652,1136.814331 703.121582,1135.047729 
	C705.010315,1113.517578 710.045593,1093.544067 718.866577,1074.581421 
	C721.649841,1068.598267 724.806519,1062.788696 727.792358,1056.899780 
	C727.792358,1056.899780 727.896301,1056.904297 728.213135,1056.758179 
	C733.125305,1050.351929 737.623718,1044.017456 742.348572,1037.856689 
	C745.731934,1033.445190 749.418762,1029.266357 752.970215,1024.983887 
	C752.970276,1024.983887 753.000000,1025.000000 753.333557,1024.953857 
	C754.349731,1024.454102 755.122009,1024.093262 755.701965,1023.533142 
	C774.247498,1005.621765 795.871338,992.705566 820.309937,984.762268 
	C830.627441,981.408813 841.398010,979.449219 851.962585,976.856079 
	C853.348022,976.843140 854.733398,976.830261 856.977905,976.841797 
	C868.980225,976.577393 880.122925,976.058594 891.266602,976.038940 
	C946.244690,975.942200 1001.223022,976.005127 1056.201050,975.916138 
	C1060.782715,975.908752 1065.363403,975.189514 1069.944458,974.800903 
	C1070.389526,974.810730 1070.834717,974.820618 1072.030273,974.840088 
	C1094.635376,972.620972 1115.364624,966.261902 1135.173340,957.045044 
	C1159.890869,945.544189 1181.010742,929.070496 1199.255859,908.874329 
	C1199.987183,908.064819 1200.351318,906.923706 1200.886475,905.937012 
	C1200.886475,905.937012 1200.976929,905.966858 1201.262695,905.807251 
	C1208.252197,896.494690 1215.185913,887.497803 1221.551025,878.115234 
	C1224.253418,874.131714 1225.763916,869.339478 1227.816040,864.914734 
	C1227.816040,864.914734 1227.917847,864.911316 1228.224243,864.749878 
	C1229.528931,862.879517 1230.693359,861.245117 1231.499146,859.449707 
	C1237.900269,845.186401 1243.206055,830.517700 1245.623413,815.037476 
	C1247.177368,805.086975 1247.748291,794.983032 1248.759766,784.947876 
M1072.574463,1324.064697 
	C1063.455933,1332.437622 1058.669556,1343.105835 1057.285767,1355.125732 
	C1054.674194,1377.813110 1070.057129,1400.911377 1092.463989,1406.968018 
	C1112.273560,1412.322388 1129.579346,1407.936279 1143.839233,1391.968872 
	C1158.021851,1376.087646 1159.493774,1353.774658 1150.711060,1337.144531 
	C1135.250854,1307.869995 1097.618774,1301.184814 1072.574463,1324.064697 
z"/>
<path fill="#FDFEFE" opacity="1.000000" stroke="none" 
	d="
M937.006165,677.171814 
	C938.394470,677.141602 939.782776,677.111389 941.911499,677.374695 
	C947.395203,677.789490 952.138489,677.910706 956.881714,678.031982 
	C956.922180,682.382080 956.962585,686.732178 956.926208,691.541138 
	C955.915161,689.602051 954.980957,687.204041 954.122375,685.000000 
	C874.921387,685.000000 795.419189,685.000000 715.916931,685.000000 
	C704.851562,685.000000 698.014893,678.080261 698.005615,666.794006 
	C697.986816,643.816895 698.084045,620.839172 697.915405,597.863281 
	C697.888062,594.136292 696.740479,590.417542 696.919556,586.444885 
	C698.360962,588.290039 699.802429,590.135193 701.624817,591.990173 
	C702.279358,595.373291 702.552917,598.746582 702.583740,602.711670 
	C702.437744,603.868774 702.534607,604.434204 702.631470,604.999573 
	C702.679443,628.689087 702.727417,652.378601 703.189575,676.818970 
	C712.071289,677.437134 720.538696,677.304443 729.006165,677.171753 
	C730.394470,677.141602 731.782776,677.111389 733.901611,677.370972 
	C738.090210,677.497742 741.548157,677.334778 745.006165,677.171814 
	C746.394470,677.141602 747.782776,677.111389 749.901611,677.370972 
	C754.090210,677.497742 757.548157,677.334778 761.006165,677.171814 
	C762.394470,677.141602 763.782776,677.111389 765.901611,677.370972 
	C770.090210,677.497742 773.548157,677.334778 777.006165,677.171814 
	C778.394470,677.141602 779.782776,677.111389 781.901611,677.370972 
	C786.090210,677.497742 789.548157,677.334778 793.006165,677.171814 
	C794.394470,677.141602 795.782776,677.111389 797.901611,677.370972 
	C802.090210,677.497742 805.548157,677.334778 809.006165,677.171814 
	C810.394470,677.141602 811.782776,677.111389 813.901611,677.370972 
	C818.090210,677.497742 821.548157,677.334778 825.006165,677.171814 
	C826.394470,677.141602 827.782776,677.111389 829.901611,677.370972 
	C834.090210,677.497742 837.548157,677.334778 841.006165,677.171814 
	C842.394470,677.141602 843.782776,677.111389 845.901611,677.370972 
	C850.090210,677.497803 853.548157,677.334839 857.006165,677.171875 
	C858.394470,677.141602 859.782776,677.111389 861.901611,677.370972 
	C866.090210,677.497742 869.548157,677.334778 873.006165,677.171814 
	C874.394470,677.141602 875.782776,677.111389 877.901611,677.370972 
	C882.090210,677.497742 885.548157,677.334778 889.006165,677.171814 
	C890.394470,677.141602 891.782776,677.111389 893.901611,677.370972 
	C898.090210,677.497803 901.548157,677.334839 905.006165,677.171875 
	C906.394470,677.141602 907.782776,677.111389 909.901611,677.370972 
	C914.090210,677.497742 917.548157,677.334778 921.006165,677.171814 
	C922.394470,677.141602 923.782776,677.111389 925.901611,677.370972 
	C930.090210,677.497742 933.548157,677.334778 937.006165,677.171814 
z"/>
<path fill="#FDFEFE" opacity="1.000000" stroke="none" 
	d="
M955.874268,702.601746 
	C945.210449,702.632996 934.546692,702.690491 923.882874,702.691284 
	C831.733337,702.698486 739.583740,702.680664 647.434204,702.707886 
	C628.939270,702.713318 610.444336,702.878601 591.487305,702.898926 
	C593.327515,701.230042 595.526794,699.439880 597.980835,698.125610 
	C599.020691,697.568787 600.595764,698.001465 601.927551,698.001465 
	C716.986206,697.999939 832.044922,697.999084 947.103577,698.004883 
	C950.138123,698.005066 953.172668,698.078369 956.527954,698.058838 
	C956.902161,699.051086 956.955688,700.102051 956.747864,701.614014 
	C956.204651,702.160278 956.000610,702.335815 955.874268,702.601746 
z"/>
<path fill="#FDFEFE" opacity="1.000000" stroke="none" 
	d="
M965.116089,1226.002808 
	C965.086853,1224.622925 965.057556,1223.243042 965.544922,1221.437134 
	C1089.374390,1220.672485 1212.687256,1220.333862 1336.000000,1219.995117 
	C1334.732788,1221.657837 1333.795898,1223.880493 1332.128296,1224.864746 
	C1328.824097,1226.815186 1326.176880,1230.403931 1321.280029,1228.977783 
	C1315.959595,1227.428223 1310.448730,1226.464355 1304.968506,1225.562988 
	C1302.411865,1225.142456 1299.732056,1225.473145 1297.108032,1225.460693 
	C1294.327148,1225.447510 1291.546143,1225.409546 1288.765381,1225.422241 
	C1286.141235,1225.434082 1283.517456,1225.517456 1280.893311,1225.532715 
	C1278.269409,1225.547974 1275.645142,1225.521606 1273.021118,1225.506348 
	C1270.397095,1225.491089 1267.773071,1225.460571 1265.149048,1225.448364 
	C1262.368164,1225.435303 1259.587280,1225.421875 1256.806519,1225.434692 
	C1254.182373,1225.446777 1251.558594,1225.504883 1248.934448,1225.520142 
	C1246.310547,1225.535400 1243.686157,1225.534302 1241.062256,1225.519043 
	C1238.438110,1225.503784 1235.814331,1225.447754 1233.190186,1225.435791 
	C1230.409424,1225.422974 1227.628418,1225.434204 1224.847534,1225.447266 
	C1222.223511,1225.459595 1219.599487,1225.492310 1216.975464,1225.507568 
	C1214.351440,1225.522827 1211.727295,1225.546997 1209.103394,1225.531616 
	C1206.479248,1225.516357 1203.855469,1225.434937 1201.231323,1225.423218 
	C1198.450562,1225.410645 1195.669556,1225.446655 1192.888672,1225.459839 
	C1190.264648,1225.472168 1187.640625,1225.479492 1185.016602,1225.494873 
	C1182.392578,1225.510132 1179.768433,1225.538086 1177.144409,1225.550415 
	C1174.363525,1225.563477 1171.582642,1225.579346 1168.801880,1225.566650 
	C1166.177734,1225.554565 1163.553955,1225.493774 1160.929810,1225.478516 
	C1158.305908,1225.463257 1155.681641,1225.467163 1153.057739,1225.482422 
	C1150.433594,1225.497681 1147.809692,1225.550781 1145.185547,1225.562866 
	C1142.404663,1225.575684 1139.623901,1225.566895 1136.843018,1225.554077 
	C1134.218994,1225.541870 1131.594849,1225.506470 1128.970825,1225.491211 
	C1126.346802,1225.475952 1123.722656,1225.454590 1121.098755,1225.469849 
	C1118.474609,1225.485107 1115.850830,1225.563477 1113.226685,1225.575317 
	C1110.445923,1225.587891 1107.665039,1225.554688 1104.884155,1225.541504 
	C1102.260132,1225.528931 1099.635986,1225.518921 1097.011963,1225.503662 
	C1094.387939,1225.488525 1091.763916,1225.463623 1089.139893,1225.451172 
	C1086.359009,1225.438110 1083.578003,1225.419067 1080.797241,1225.431763 
	C1078.173096,1225.443726 1075.549316,1225.507568 1072.925171,1225.522827 
	C1070.301270,1225.537964 1067.677124,1225.531372 1065.053101,1225.516235 
	C1062.429077,1225.500977 1059.804932,1225.450684 1057.180908,1225.438599 
	C1054.400024,1225.425659 1051.619263,1225.431274 1048.838379,1225.444336 
	C1046.214355,1225.456665 1043.590332,1225.494995 1040.966309,1225.510254 
	C1038.342285,1225.525391 1035.716919,1225.579224 1033.094482,1225.517700 
	C1030.787354,1225.463501 1028.484741,1225.200317 1026.177856,1225.159546 
	C1022.762390,1225.099121 1019.344299,1225.114136 1015.928650,1225.173340 
	C1013.620361,1225.213379 1011.315552,1225.427490 1009.007141,1225.485840 
	C1006.384399,1225.552124 1003.757690,1225.592407 1001.135986,1225.522827 
	C999.824219,1225.488159 998.520325,1225.032959 997.211548,1225.025879 
	C988.532166,1224.978882 979.851990,1224.960938 971.173096,1225.042480 
	C969.717651,1225.056030 968.267151,1225.599487 966.189819,1225.943970 
	C965.565247,1225.989746 965.116089,1226.002808 965.116089,1226.002808 
z"/>
<path fill="#FFFEFC" opacity="1.000000" stroke="none" 
	d="
M1216.954224,1244.787231 
	C1215.960083,1244.852539 1214.965942,1244.975220 1213.971802,1244.975220 
	C1136.619141,1244.969849 1059.266479,1244.954956 981.135315,1244.627197 
	C977.280090,1244.206543 974.090637,1244.554932 971.166870,1243.830811 
	C969.252869,1243.356812 967.723450,1241.329834 966.021729,1239.998413 
	C970.465088,1240.965698 974.574402,1241.824707 979.463013,1240.409180 
	C984.464294,1238.961060 990.194885,1240.008179 995.606262,1240.004517 
	C1012.834412,1239.992676 1030.063477,1239.894897 1047.290527,1240.034790 
	C1059.988159,1240.137939 1072.682495,1240.722778 1085.379761,1240.782227 
	C1093.326294,1240.819336 1101.273804,1240.129028 1109.223999,1240.035767 
	C1120.958984,1239.897949 1132.698242,1239.890259 1144.433105,1240.031738 
	C1156.797607,1240.180786 1169.158325,1240.722046 1181.522705,1240.811035 
	C1193.205322,1240.895142 1204.890625,1240.614258 1216.797119,1241.146118 
	C1216.997681,1242.794556 1216.975952,1243.790894 1216.954224,1244.787231 
z"/>
<path fill="#FFF7D5" opacity="1.000000" stroke="none" 
	d="
M760.245178,1442.098389 
	C771.052734,1448.984131 781.470032,1456.764160 792.599487,1463.338379 
	C805.368958,1470.881348 819.390137,1475.663818 833.847412,1479.147705 
	C858.414185,1485.067749 883.419556,1483.913086 908.339233,1483.972534 
	C953.823303,1484.081177 999.307800,1483.972900 1044.792114,1483.995728 
	C1086.700195,1484.016724 1124.319458,1471.636230 1156.841553,1444.922607 
	C1176.781372,1428.544067 1192.210205,1408.548096 1203.155762,1385.130737 
	C1208.804932,1373.044800 1213.391846,1360.630859 1215.403198,1347.365479 
	C1215.599487,1346.071411 1216.236206,1344.844238 1217.127197,1343.288696 
	C1217.586060,1342.991455 1218.036133,1342.993774 1218.036133,1342.993774 
	C1216.299316,1350.996704 1214.890015,1359.088501 1212.751099,1366.982544 
	C1209.259277,1379.869873 1203.527832,1391.827515 1195.776367,1402.693970 
	C1188.763062,1412.525879 1181.380737,1422.096069 1174.089478,1431.727417 
	C1168.175049,1439.540283 1160.056274,1444.921997 1152.381348,1450.708862 
	C1145.832153,1455.647339 1139.031860,1460.359619 1131.904663,1464.398804 
	C1121.917847,1470.058716 1111.615356,1475.223022 1100.320312,1477.927856 
	C1092.680664,1479.757446 1085.073242,1481.768677 1077.365112,1483.250122 
	C1070.888794,1484.494751 1064.290161,1485.839600 1057.741821,1485.859253 
	C993.918396,1486.050537 930.093811,1486.072510 866.270630,1485.839844 
	C858.561401,1485.811523 850.819092,1484.230469 843.161621,1482.952637 
	C828.665039,1480.533569 814.625488,1476.547607 801.308472,1470.146973 
	C787.377136,1463.451172 774.435303,1455.228638 762.396423,1445.569702 
	C761.438843,1444.801514 760.901917,1443.508911 760.245178,1442.098389 
z"/>
<path fill="#FFF7D5" opacity="1.000000" stroke="none" 
	d="
M1428.156494,1179.812744 
	C1431.996338,1175.323853 1436.170654,1170.837891 1440.442993,1166.447144 
	C1462.051514,1144.240112 1476.909790,1118.191895 1483.101074,1087.820190 
	C1485.968140,1073.755493 1487.713379,1059.226318 1487.863892,1044.885620 
	C1488.414551,992.394897 1488.177734,939.894592 1488.032593,887.398438 
	C1487.974731,866.536621 1485.957520,845.842529 1478.850708,826.051636 
	C1473.799438,811.985352 1467.374390,798.521301 1458.419434,786.413269 
	C1453.597900,779.894043 1448.799683,773.357544 1443.911255,766.497070 
	C1445.326660,767.062378 1447.268921,767.621033 1448.245483,768.910828 
	C1455.127075,777.999817 1462.942383,786.635437 1468.252563,796.592834 
	C1474.087036,807.533081 1477.523926,819.747253 1482.063354,831.383789 
	C1489.891724,851.451904 1490.105469,872.442810 1490.040161,893.554688 
	C1489.873535,947.368530 1490.172119,1001.184570 1489.806396,1054.996460 
	C1489.739990,1064.763794 1486.803711,1074.483521 1486.278564,1084.283447 
	C1485.694702,1095.177979 1481.005859,1104.853027 1477.374878,1114.543945 
	C1472.894775,1126.501221 1465.348755,1137.338745 1458.821533,1148.480957 
	C1457.012207,1151.569580 1453.872192,1153.851074 1451.798218,1156.821045 
	C1450.167725,1159.156006 1449.238770,1161.980835 1447.449829,1165.740479 
	C1444.082642,1167.903320 1438.881470,1169.862549 1436.427002,1175.774048 
	C1435.557861,1177.867188 1431.265747,1178.538940 1428.156494,1179.812744 
z"/>
<path fill="#FFF7D5" opacity="1.000000" stroke="none" 
	d="
M1336.415527,1219.989380 
	C1212.687256,1220.333862 1089.374390,1220.672485 965.605591,1221.026855 
	C965.724243,1220.392944 966.209534,1219.326294 966.892273,1219.179932 
	C968.328735,1218.871826 969.868713,1219.026123 971.366272,1219.026123 
	C1086.103027,1219.019409 1200.839844,1219.002319 1315.576538,1219.022705 
	C1343.092407,1219.027588 1369.285889,1213.488892 1393.854126,1200.838013 
	C1395.914185,1199.777100 1398.160156,1199.077637 1400.689697,1198.217896 
	C1400.979370,1198.546021 1400.999146,1199.057617 1400.804688,1199.159302 
	C1395.128906,1202.126099 1389.454468,1205.097534 1383.723999,1207.956787 
	C1381.987427,1208.823242 1380.129272,1209.518555 1378.254272,1210.023560 
	C1367.115723,1213.022827 1355.955811,1215.943481 1344.066040,1218.946167 
	C1342.547485,1219.311646 1341.765991,1219.621582 1340.984619,1219.931519 
	C1339.600098,1219.948975 1338.215454,1219.966309 1336.415527,1219.989380 
z"/>
<path fill="#FFF7D5" opacity="1.000000" stroke="none" 
	d="
M1069.630615,974.540710 
	C1065.363403,975.189514 1060.782715,975.908752 1056.201050,975.916138 
	C1001.223022,976.005127 946.244690,975.942200 891.266602,976.038940 
	C880.122925,976.058594 868.980225,976.577393 857.382568,976.745056 
	C859.450745,975.760437 861.971802,974.147888 864.496277,974.142456 
	C932.281982,973.997131 1000.067993,974.016174 1067.854004,974.019836 
	C1068.341675,974.019836 1068.829224,974.189819 1069.630615,974.540710 
z"/>
<path fill="#FDFEFE" opacity="1.000000" stroke="none" 
	d="
M673.191956,1210.932251 
	C672.831360,1189.489380 672.772034,1168.072021 673.019775,1146.658447 
	C673.113647,1138.544556 673.915649,1130.439087 674.611145,1121.970825 
	C675.081116,1123.343872 675.351013,1125.073608 675.581421,1126.808716 
	C675.683289,1127.576172 675.393616,1128.713135 675.809692,1129.074341 
	C683.345276,1135.616211 677.919617,1143.872314 678.574890,1151.244751 
	C679.205933,1158.345459 678.160645,1165.588135 677.963196,1172.771484 
	C677.710999,1181.946899 677.529053,1191.125000 677.414917,1200.302979 
	C677.390808,1202.239990 677.811829,1204.180176 677.991150,1206.122437 
	C678.285217,1209.306030 677.317200,1211.376831 673.191956,1210.932251 
z"/>
<path fill="#FFF7D5" opacity="1.000000" stroke="none" 
	d="
M702.396118,1139.076172 
	C702.834778,1143.270874 702.962524,1147.591797 702.963623,1151.912842 
	C702.977234,1205.879395 702.877258,1259.846313 703.062439,1313.812134 
	C703.094849,1323.256958 704.305847,1332.697632 704.889526,1342.593506 
	C703.885010,1341.260376 702.318604,1339.530273 702.156494,1337.677368 
	C701.532166,1330.537476 701.069519,1323.358643 701.059570,1316.193604 
	C700.980225,1259.077881 701.008789,1201.961914 701.062866,1144.846069 
	C701.064636,1142.964722 701.691040,1141.083740 702.396118,1139.076172 
z"/>
<path fill="#FFFEFC" opacity="1.000000" stroke="none" 
	d="
M1220.979614,1245.048096 
	C1224.803223,1242.968750 1225.850098,1245.674438 1225.916626,1248.418823 
	C1226.385132,1267.777954 1226.728027,1287.141357 1226.917480,1306.505249 
	C1226.950684,1309.897217 1225.811768,1313.113037 1221.345093,1313.491089 
	C1220.976807,1290.388550 1220.978149,1267.718384 1220.979614,1245.048096 
z"/>
<path fill="#FFF7D5" opacity="1.000000" stroke="none" 
	d="
M1200.545410,905.988159 
	C1200.351318,906.923706 1199.987183,908.064819 1199.255859,908.874329 
	C1181.010742,929.070496 1159.890869,945.544189 1135.173340,957.045044 
	C1115.364624,966.261902 1094.635376,972.620972 1072.353760,974.752625 
	C1072.973877,973.783508 1073.904297,972.403931 1075.088745,972.132080 
	C1079.039062,971.225525 1083.058960,970.403259 1087.091919,970.125305 
	C1093.719727,969.668396 1099.782837,968.404663 1105.626221,964.650940 
	C1108.950928,962.515137 1114.099976,963.453552 1117.968262,961.879333 
	C1125.540283,958.797913 1132.794312,954.933167 1140.168335,951.368591 
	C1140.755127,951.084961 1141.198364,950.444519 1141.798218,950.257202 
	C1153.733398,946.530090 1163.238159,938.633057 1172.834106,931.251770 
	C1180.947754,925.010437 1187.854004,917.203308 1195.332520,910.129272 
	C1196.870117,908.674744 1198.576050,907.397949 1200.545410,905.988159 
z"/>
<path fill="#CEE2EC" opacity="1.000000" stroke="none" 
	d="
M1219.818848,774.927124 
	C1219.360840,774.112549 1219.139038,773.127686 1219.139160,772.142761 
	C1219.144653,717.036560 1219.168823,661.930359 1219.317871,606.364014 
	C1219.937500,607.347046 1220.859619,608.789612 1220.861572,610.233459 
	C1220.935303,663.815796 1220.929077,717.398254 1220.891968,770.980652 
	C1220.891113,772.239502 1220.413696,773.498047 1219.818848,774.927124 
z"/>
<path fill="#FFF7D5" opacity="1.000000" stroke="none" 
	d="
M704.691528,1345.269165 
	C706.109802,1348.776001 707.370239,1352.514282 708.372375,1356.320679 
	C716.477844,1387.106689 732.178955,1413.427856 754.850281,1435.678711 
	C756.629272,1437.424683 758.305176,1439.275635 760.143555,1441.379272 
	C755.522827,1439.984619 751.271301,1438.156982 748.618652,1433.061890 
	C746.900330,1429.761475 742.998291,1427.592285 740.053650,1424.939575 
	C739.247437,1424.213379 738.061279,1423.742065 737.567505,1422.862915 
	C734.449707,1417.311646 731.426453,1411.705444 728.469055,1406.066528 
	C723.516785,1396.623779 718.123474,1387.366699 713.877930,1377.612671 
	C709.989685,1368.679443 707.313354,1359.212158 704.267212,1349.926270 
	C703.838074,1348.618408 704.341980,1347.004517 704.691528,1345.269165 
z"/>
<path fill="#FFF7D5" opacity="1.000000" stroke="none" 
	d="
M851.673096,976.593079 
	C841.398010,979.449219 830.627441,981.408813 820.309937,984.762268 
	C795.871338,992.705566 774.247498,1005.621765 755.701965,1023.533142 
	C755.122009,1024.093262 754.349731,1024.454102 753.325562,1024.938965 
	C755.126221,1018.791809 760.836914,1016.150574 765.382385,1012.311707 
	C769.116272,1009.158325 772.447998,1005.528687 776.184265,1002.378540 
	C777.341858,1001.402527 779.355835,1001.522461 780.779663,1000.767334 
	C785.558655,998.232849 790.073181,995.127258 795.010559,992.979614 
	C803.986023,989.075378 813.077332,985.363464 822.339050,982.214905 
	C829.708740,979.709534 837.377014,978.045715 844.973755,976.269165 
	C846.995056,975.796509 849.240845,976.283569 851.673096,976.593079 
z"/>
<path fill="#FFF7D5" opacity="1.000000" stroke="none" 
	d="
M727.462891,1056.963379 
	C724.806519,1062.788696 721.649841,1068.598267 718.866577,1074.581421 
	C710.045593,1093.544067 705.010315,1113.517578 703.064941,1134.649536 
	C703.061707,1128.843018 703.022766,1122.704712 703.667603,1116.639038 
	C704.152344,1112.078979 705.572693,1107.623901 706.474976,1103.101685 
	C708.740051,1091.749878 714.000244,1081.539307 718.424927,1070.990356 
	C720.602112,1065.799683 722.467773,1060.589844 727.462891,1056.963379 
z"/>
<path fill="#FFF7D5" opacity="1.000000" stroke="none" 
	d="
M1248.393188,785.074890 
	C1247.748291,794.983032 1247.177368,805.086975 1245.623413,815.037476 
	C1243.206055,830.517700 1237.900269,845.186401 1231.499146,859.449707 
	C1230.693359,861.245117 1229.528931,862.879517 1228.212158,864.700439 
	C1229.588745,859.908752 1231.335571,855.022461 1232.967773,850.098206 
	C1236.523193,839.372009 1240.655762,828.782288 1243.339844,817.839417 
	C1245.491211,809.069092 1245.839233,799.858276 1247.025269,790.847961 
	C1247.274536,788.954773 1247.688599,787.083374 1248.393188,785.074890 
z"/>
<path fill="#FDFEFE" opacity="1.000000" stroke="none" 
	d="
M1232.537109,1369.316650 
	C1238.225830,1372.760376 1237.904297,1373.677490 1233.983521,1378.320557 
	C1232.253662,1380.369141 1232.793823,1384.332031 1232.295776,1387.424561 
	C1232.055298,1388.917603 1231.978394,1390.479370 1231.435303,1391.855225 
	C1231.274170,1392.263672 1229.153198,1392.486816 1229.002686,1392.210571 
	C1228.294678,1390.911011 1227.927612,1389.417725 1227.501099,1387.975098 
	C1227.094238,1386.598633 1227.133057,1384.922119 1226.334473,1383.859619 
	C1223.369141,1379.914062 1224.353516,1375.633301 1225.159302,1371.498291 
	C1226.020630,1367.077881 1229.218262,1368.105957 1232.537109,1369.316650 
z"/>
<path fill="#FFF7D5" opacity="1.000000" stroke="none" 
	d="
M1220.679199,1244.884766 
	C1220.978149,1267.718384 1220.976807,1290.388550 1220.975586,1313.526978 
	C1220.969482,1316.687500 1220.963135,1319.379761 1220.664185,1322.534180 
	C1219.988159,1323.015137 1219.604736,1323.034058 1219.221191,1323.052979 
	C1219.161621,1298.935181 1219.130981,1274.817139 1218.984619,1250.699829 
	C1218.973389,1248.864014 1218.141846,1247.033203 1217.322998,1244.993652 
	C1216.975952,1243.790894 1216.997681,1242.794556 1217.019531,1241.425293 
	C1218.139282,1242.275513 1219.258911,1243.498535 1220.679199,1244.884766 
z"/>
<path fill="#FDFEFE" opacity="1.000000" stroke="none" 
	d="
M716.566895,536.987427 
	C714.656250,543.433716 712.297180,549.864197 710.096680,556.348572 
	C709.176392,559.060303 708.592834,561.886353 707.510681,564.854858 
	C706.451355,564.311218 705.339294,563.686340 705.091919,562.815796 
	C703.975952,558.887451 702.772888,554.927063 702.317383,550.897278 
	C702.147400,549.392944 703.650879,547.404297 704.885559,546.106812 
	C706.656250,544.246033 708.880920,542.817444 710.909607,541.201782 
	C712.668701,539.800842 714.425049,538.396423 716.566895,536.987427 
z"/>
<path fill="#FFF7D5" opacity="1.000000" stroke="none" 
	d="
M1410.005859,737.435242 
	C1407.134033,736.306641 1404.112427,735.007385 1401.299805,733.352661 
	C1383.690308,722.992737 1364.480835,717.218262 1344.309326,713.117554 
	C1348.718872,712.986145 1353.771851,712.001404 1358.027954,713.415283 
	C1375.134766,719.097717 1392.222900,724.997009 1407.721680,734.516602 
	C1408.645752,735.084167 1409.217163,736.225769 1410.005859,737.435242 
z"/>
<path fill="#FFFEFC" opacity="1.000000" stroke="none" 
	d="
M1221.000000,1343.468018 
	C1226.832642,1343.130005 1228.032227,1344.161255 1227.937012,1349.899536 
	C1227.885742,1352.985229 1227.487915,1356.145752 1226.637329,1359.096924 
	C1226.306885,1360.243774 1224.299194,1360.907349 1223.055664,1361.791260 
	C1222.373169,1360.623901 1221.158813,1359.482056 1221.101318,1358.284790 
	C1220.871948,1353.511353 1221.002686,1348.720459 1221.000000,1343.468018 
z"/>
<path fill="#FFF7D5" opacity="1.000000" stroke="none" 
	d="
M1227.484253,864.994629 
	C1225.763916,869.339478 1224.253418,874.131714 1221.551025,878.115234 
	C1215.185913,887.497803 1208.252197,896.494690 1201.237061,905.767090 
	C1201.370850,904.686523 1201.592163,903.331970 1202.296753,902.310913 
	C1207.772583,894.375549 1213.413452,886.552856 1218.798218,878.557373 
	C1219.541992,877.453186 1219.160889,875.591492 1219.255371,874.568726 
	C1220.879883,873.063660 1222.659302,871.695984 1224.073608,870.019958 
	C1225.312988,868.551208 1226.142090,866.736389 1227.484253,864.994629 
z"/>
<path fill="#FFF7D5" opacity="1.000000" stroke="none" 
	d="
M1443.864990,765.803955 
	C1439.289551,762.078430 1434.836304,757.878784 1430.174438,753.925171 
	C1424.873535,749.429688 1419.386230,745.154053 1413.872192,740.461548 
	C1417.716187,742.437927 1421.679077,744.717041 1425.609375,747.050842 
	C1426.299805,747.460815 1426.983887,748.657837 1427.451294,748.548950 
	C1433.294067,747.188293 1433.580933,752.591492 1435.924072,755.411133 
	C1438.652344,758.694336 1441.244141,762.091064 1443.864990,765.803955 
z"/>
<path fill="#FDFEFE" opacity="1.000000" stroke="none" 
	d="
M573.994568,704.977112 
	C573.994568,704.977112 573.610901,705.124695 572.985962,705.062622 
	C569.908508,705.643372 567.455933,706.286194 565.003418,706.929077 
	C560.254333,708.293213 555.505310,709.657349 550.377991,710.990723 
	C551.091858,705.918152 553.890198,704.172668 558.508301,704.546814 
	C561.089355,704.755920 563.966248,704.029846 566.383179,702.975891 
	C571.197998,700.876282 575.868164,699.689758 580.528137,702.653687 
	C578.148315,703.695801 576.071472,704.336487 573.994568,704.977112 
z"/>
<path fill="#FFF7D5" opacity="1.000000" stroke="none" 
	d="
M752.619019,1025.011963 
	C749.418762,1029.266357 745.731934,1033.445190 742.348572,1037.856689 
	C737.623718,1044.017456 733.125305,1050.351929 728.209961,1056.706299 
	C730.111145,1052.524780 731.982056,1048.014526 734.646912,1044.036133 
	C737.614502,1039.606079 741.146362,1035.516479 744.738708,1031.556274 
	C746.952576,1029.115723 749.738647,1027.194336 752.619019,1025.011963 
z"/>
<path fill="#FFFEFC" opacity="1.000000" stroke="none" 
	d="
M1219.150146,1323.423828 
	C1219.604736,1323.034058 1219.988159,1323.015137 1220.658813,1322.982178 
	C1221.778320,1325.297485 1222.610718,1327.626709 1223.443115,1329.956055 
	C1223.091797,1330.140015 1222.740479,1330.323975 1222.389282,1330.507935 
	C1223.223145,1330.995605 1224.084351,1331.442627 1224.886108,1331.978271 
	C1227.591797,1333.786011 1227.949585,1335.443115 1225.000610,1337.606079 
	C1223.442261,1338.749146 1222.503906,1340.737427 1221.142822,1342.672119 
	C1220.258545,1342.999512 1219.517090,1342.999023 1218.405884,1342.996094 
	C1218.036133,1342.993774 1217.586060,1342.991455 1217.361694,1343.005737 
	C1217.136230,1342.578125 1217.135132,1342.136108 1217.606567,1341.287354 
	C1221.557617,1336.168823 1220.024780,1331.084473 1219.182129,1326.051392 
	C1219.147949,1325.299194 1219.113525,1324.546997 1219.150146,1323.423828 
z"/>
<path fill="#FDFEFE" opacity="1.000000" stroke="none" 
	d="
M547.878174,710.876099 
	C543.691162,713.026001 539.212585,714.965393 534.368042,716.976318 
	C533.784729,715.934814 533.567444,714.821716 533.407898,714.004395 
	C536.064636,713.091614 538.773926,712.600525 540.939636,711.242554 
	C542.131897,710.495056 542.355591,708.262512 543.115723,706.749512 
	C543.873474,705.241272 544.625793,703.689270 545.679260,702.400696 
	C545.929138,702.095093 548.099243,702.672119 548.141479,703.002258 
	C548.330383,704.480347 548.091553,706.017883 547.963440,707.530212 
	C547.874573,708.578491 547.714722,709.620728 547.878174,710.876099 
z"/>
<path fill="#FDFEFE" opacity="1.000000" stroke="none" 
	d="
M1204.484741,846.957275 
	C1206.400879,841.901062 1208.663330,836.800903 1211.033936,831.350830 
	C1211.581177,831.189880 1212.410034,831.531128 1212.404053,831.546570 
	C1210.321655,836.884521 1212.876465,844.533630 1204.484741,846.957275 
z"/>
<path fill="#FFF7D5" opacity="1.000000" stroke="none" 
	d="
M1402.144897,1197.900635 
	C1408.309326,1193.308960 1414.862061,1188.768066 1421.764404,1184.228516 
	C1418.366943,1187.497681 1414.796143,1191.004395 1410.807617,1193.944580 
	C1408.382690,1195.732178 1405.313232,1196.645630 1402.144897,1197.900635 
z"/>
<path fill="#FFF7D5" opacity="1.000000" stroke="none" 
	d="
M1341.983398,712.312683 
	C1334.945923,712.234558 1327.817383,711.794739 1320.357422,711.123108 
	C1326.742554,710.679871 1333.458130,710.426636 1340.176147,710.332642 
	C1340.740479,710.324768 1341.319824,711.386292 1341.983398,712.312683 
z"/>
<path fill="#FFF7D5" opacity="1.000000" stroke="none" 
	d="
M966.011780,1239.533936 
	C967.723450,1241.329834 969.252869,1243.356812 971.166870,1243.830811 
	C974.090637,1244.554932 977.280090,1244.206543 980.668335,1244.572510 
	C975.908264,1244.831665 970.836609,1244.831665 964.667358,1244.831665 
	C964.667358,1238.658691 964.667358,1232.664307 964.891724,1226.336426 
	C965.116089,1226.002808 965.565247,1225.989746 965.790039,1225.992432 
	C966.010559,1230.353271 966.006226,1234.711304 966.011780,1239.533936 
z"/>
<path fill="#CEE2EC" opacity="1.000000" stroke="none" 
	d="
M434.479950,1061.302002 
	C435.815643,1067.053467 436.929840,1073.108276 438.010742,1079.583008 
	C433.678741,1076.409058 433.460938,1071.421509 433.466980,1066.423828 
	C433.468933,1064.817383 433.980164,1063.211426 434.479950,1061.302002 
z"/>
<path fill="#CEE2EC" opacity="1.000000" stroke="none" 
	d="
M1212.729980,559.051453 
	C1210.186646,553.217957 1207.748291,546.936768 1205.297852,540.292908 
	C1210.836792,544.927917 1212.438721,551.522156 1212.729980,559.051453 
z"/>
<path fill="#CEE2EC" opacity="1.000000" stroke="none" 
	d="
M487.167358,748.326538 
	C483.932098,752.234985 480.294891,756.038269 476.325745,759.909058 
	C474.683472,756.978394 475.949127,754.975342 478.481232,753.416626 
	C481.256897,751.708069 484.005157,749.954956 487.167358,748.326538 
z"/>
<path fill="#FFFEFC" opacity="1.000000" stroke="none" 
	d="
M1340.985596,1220.308960 
	C1341.765991,1219.621582 1342.547485,1219.311646 1343.664551,1219.003418 
	C1344.391724,1219.689087 1344.904175,1220.332886 1345.150024,1221.066040 
	C1345.664307,1222.599609 1346.037842,1224.180176 1346.469238,1225.741455 
	C1345.133667,1226.033691 1343.162109,1227.000488 1342.600952,1226.471313 
	C1341.572144,1225.500977 1341.329712,1223.662476 1340.860352,1222.154541 
	C1340.725220,1221.720337 1340.934814,1221.178711 1340.985596,1220.308960 
z"/>
<path fill="#FDFEFE" opacity="1.000000" stroke="none" 
	d="
M1212.068359,826.788757 
	C1212.947266,822.351318 1214.147217,817.775818 1215.614014,812.921875 
	C1216.154541,814.917603 1217.107666,817.384155 1216.531860,819.417725 
	C1215.797119,822.011658 1213.827026,824.255737 1212.068359,826.788757 
z"/>
<path fill="#FDFEFE" opacity="1.000000" stroke="none" 
	d="
M705.629883,568.061401 
	C705.439697,571.436646 704.887939,574.873352 704.114868,578.654053 
	C701.284790,576.314941 701.782532,572.377319 705.629883,568.061401 
z"/>
<path fill="#CEE2EC" opacity="1.000000" stroke="none" 
	d="
M724.004395,524.366089 
	C722.453186,527.868408 720.534546,531.289368 718.383301,534.963379 
	C719.979492,531.572571 721.808228,527.928589 724.004395,524.366089 
z"/>
<path fill="#FDFEFE" opacity="1.000000" stroke="none" 
	d="
M449.997986,1115.446777 
	C451.298523,1117.141357 452.597626,1119.223145 453.931427,1121.652588 
	C448.212891,1122.796631 449.632660,1118.975342 449.997986,1115.446777 
z"/>
<path fill="#CEE2EC" opacity="1.000000" stroke="none" 
	d="
M530.027893,1194.502197 
	C533.000183,1195.460693 536.047729,1196.751221 539.335205,1198.290771 
	C535.433105,1199.821655 532.781799,1197.293213 530.027893,1194.502197 
z"/>
<path fill="#FDFEFE" opacity="1.000000" stroke="none" 
	d="
M703.560791,582.051514 
	C703.617371,584.067932 703.305664,586.135620 702.914917,588.601807 
	C699.674194,586.531433 700.044373,584.245300 703.560791,582.051514 
z"/>
<path fill="#CEE2EC" opacity="1.000000" stroke="none" 
	d="
M574.426880,705.023254 
	C576.071472,704.336487 578.148315,703.695801 580.611389,703.049805 
	C582.131775,703.084839 583.266052,703.125244 584.683472,703.349976 
	C581.597473,704.045959 578.228271,704.557678 574.426880,705.023254 
z"/>
<path fill="#FFF7D5" opacity="1.000000" stroke="none" 
	d="
M1422.582520,1184.097778 
	C1423.847168,1182.706543 1425.477295,1181.289551 1427.436890,1179.820801 
	C1427.867554,1183.115234 1425.671143,1183.888428 1422.582520,1184.097778 
z"/>
<path fill="#FFF7D5" opacity="1.000000" stroke="none" 
	d="
M1105.667480,1479.169434 
	C1105.693115,1479.790161 1105.507690,1480.489136 1105.053833,1480.819214 
	C1104.852295,1480.965942 1104.109131,1480.368164 1103.611816,1480.108398 
	C1104.190186,1479.771362 1104.768677,1479.434570 1105.667480,1479.169434 
z"/>
<path fill="#CEE2EC" opacity="1.000000" stroke="none" 
	d="
M490.557190,744.989624 
	C490.379242,745.674255 489.831299,746.381165 489.014069,747.166992 
	C488.350464,746.793213 487.956146,746.340515 487.561829,745.887817 
	C488.436981,745.595886 489.312103,745.303894 490.557190,744.989624 
z"/>
<path fill="#CEE2EC" opacity="1.000000" stroke="none" 
	d="
M525.181458,1192.353027 
	C526.243103,1192.492432 527.487732,1192.925781 528.932007,1193.633545 
	C527.875916,1193.487671 526.620178,1193.067383 525.181458,1192.353027 
z"/>
<path fill="#CEE2EC" opacity="1.000000" stroke="none" 
	d="
M871.724243,437.538757 
	C870.280334,437.877838 868.562744,437.986023 866.422668,438.003754 
	C867.817017,437.711456 869.633728,437.509644 871.724243,437.538757 
z"/>
<path fill="#FFF7D5" opacity="1.000000" stroke="none" 
	d="
M1251.762085,710.638489 
	C1251.182983,711.181641 1250.396729,711.488525 1249.287598,711.858459 
	C1249.828125,711.415100 1250.691528,710.908630 1251.762085,710.638489 
z"/>
<path fill="#CEE2EC" opacity="1.000000" stroke="none" 
	d="
M1046.729248,437.523407 
	C1045.277588,437.827789 1043.555786,437.900696 1041.416382,437.859314 
	C1042.818848,437.594025 1044.639038,437.442963 1046.729248,437.523407 
z"/>
<path fill="#CEE2EC" opacity="1.000000" stroke="none" 
	d="
M725.771118,521.163879 
	C725.750854,522.074097 725.360291,523.021423 724.711670,524.140991 
	C724.769409,523.275818 725.085144,522.238342 725.771118,521.163879 
z"/>
<path fill="#B0BED7" opacity="1.000000" stroke="none" 
	d="
M433.416687,1043.229370 
	C433.747131,1044.668579 433.871033,1046.423950 433.727844,1048.588867 
	C433.460724,1048.998413 433.075134,1048.941528 433.075134,1048.941528 
	C433.120117,1047.142944 433.165131,1045.344238 433.416687,1043.229370 
z"/>
<path fill="#CEE2EC" opacity="1.000000" stroke="none" 
	d="
M433.042114,1049.306396 
	C433.075134,1048.941528 433.460724,1048.998413 433.653595,1049.025391 
	C433.917358,1050.108276 433.988251,1051.164307 433.982117,1052.610107 
	C433.606415,1051.890381 433.307770,1050.780884 433.042114,1049.306396 
z"/>
<path fill="#FFF7D5" opacity="1.000000" stroke="none" 
	d="
M747.452393,1438.621826 
	C747.339722,1439.057007 747.065308,1439.323608 746.773560,1439.569580 
	C746.766052,1439.575928 746.567810,1439.355957 746.458496,1439.241455 
	C746.735168,1438.977905 747.011780,1438.714233 747.452393,1438.621826 
z"/>
<path fill="#CEE2EC" opacity="1.000000" stroke="none" 
	d="
M433.768677,1055.170654 
	C434.082001,1055.555786 434.188782,1056.099243 434.174438,1056.822510 
	C433.889587,1056.444458 433.725830,1055.886719 433.768677,1055.170654 
z"/>
<path fill="#FFF7D5" opacity="1.000000" stroke="none" 
	d="
M1412.995605,739.401367 
	C1412.378906,739.374573 1411.689209,739.040955 1410.895996,738.416626 
	C1411.502441,738.448792 1412.212402,738.771667 1412.995605,739.401367 
z"/>
<path fill="#B0BED7" opacity="1.000000" stroke="none" 
	d="
M433.794769,861.210083 
	C434.018799,861.780212 434.035980,862.555054 433.924622,863.698425 
	C433.726654,863.182922 433.657288,862.298828 433.794769,861.210083 
z"/>
<path fill="#FFF7D5" opacity="1.000000" stroke="none" 
	d="
M1248.631104,779.195312 
	C1248.911011,779.755676 1248.968140,780.508728 1248.924316,781.628784 
	C1248.685059,781.126526 1248.546631,780.257324 1248.631104,779.195312 
z"/>
<path fill="#FDFEFE" opacity="1.000000" stroke="none" 
	d="
M455.032837,1124.276367 
	C455.374237,1124.448364 455.726624,1124.921021 456.037170,1125.696777 
	C455.678192,1125.525757 455.360992,1125.051392 455.032837,1124.276367 
z"/>
<path fill="#CEE2EC" opacity="1.000000" stroke="none" 
	d="
M1204.718506,538.103333 
	C1204.345337,537.916443 1204.049805,537.370972 1203.678955,536.518433 
	C1204.001221,536.722473 1204.398682,537.233582 1204.718506,538.103333 
z"/>
<path fill="#FDFEFE" opacity="1.000000" stroke="none" 
	d="
M675.223633,1118.913330 
	C675.035583,1118.825195 675.004211,1118.658569 675.073486,1118.258301 
	C675.309143,1118.200073 675.462769,1118.365723 675.565857,1118.558228 
	C675.590454,1118.604370 675.446655,1118.740479 675.223633,1118.913330 
z"/>
<path fill="#CEE2EC" opacity="1.000000" stroke="none" 
	d="
M491.432861,744.050720 
	C491.542633,744.218079 491.416718,744.440430 491.096375,744.758728 
	C490.907898,744.575989 491.006317,744.326355 491.432861,744.050720 
z"/>
<path fill="#CEE2EC" opacity="1.000000" stroke="none" 
	d="
M1219.438110,597.915283 
	C1219.231812,597.854492 1219.169678,597.685791 1219.139648,597.249329 
	C1219.308594,597.256836 1219.445312,597.532104 1219.438110,597.915283 
z"/>
<path fill="#CEE2EC" opacity="1.000000" stroke="none" 
	d="
M537.477478,1200.460205 
	C537.522644,1200.435303 537.432312,1200.484985 537.477478,1200.460205 
z"/>
<path fill="#CEE2EC" opacity="1.000000" stroke="none" 
	d="
M717.679443,536.063721 
	C717.916077,536.346252 717.750916,536.599670 717.231201,536.886169 
	C717.170105,536.728577 717.303772,536.433716 717.679443,536.063721 
z"/>
<path fill="#CEE2EC" opacity="1.000000" stroke="none" 
	d="
M1219.241211,787.921753 
	C1219.055786,787.834778 1219.023315,787.658386 1219.086182,787.230347 
	C1219.311401,787.161987 1219.463379,787.334656 1219.557251,787.534668 
	C1219.585693,787.595032 1219.453003,787.731018 1219.241211,787.921753 
z"/>
<path fill="#CEE2EC" opacity="1.000000" stroke="none" 
	d="
M726.724731,520.105591 
	C726.837280,520.301758 726.722412,520.612366 726.368530,521.027893 
	C726.252075,520.828552 726.374695,520.524231 726.724731,520.105591 
z"/>
<path fill="#CEE2EC" opacity="1.000000" stroke="none" 
	d="
M727.747681,518.172668 
	C727.906311,518.367737 727.835510,518.732727 727.519287,519.256714 
	C727.355286,519.057983 727.436768,518.700317 727.747681,518.172668 
z"/>
<path fill="#CEE2EC" opacity="1.000000" stroke="none" 
	d="
M1055.913818,437.754517 
	C1055.835205,437.952484 1055.665039,437.999084 1055.243652,437.963898 
	C1055.268921,437.789093 1055.545532,437.696075 1055.913818,437.754517 
z"/>
<path fill="#CEE2EC" opacity="1.000000" stroke="none" 
	d="
M1050.922607,437.634644 
	C1050.843140,437.833893 1050.669556,437.881805 1050.238892,437.847076 
	C1050.264038,437.670746 1050.546265,437.577026 1050.922607,437.634644 
z"/>
<path fill="#FDFEFE" opacity="1.000000" stroke="none" 
	d="
M456.049866,1127.082031 
	C456.217438,1127.052734 456.333160,1127.236328 456.383881,1127.627686 
	C456.247162,1127.631836 456.140198,1127.451660 456.049866,1127.082031 
z"/>
<path fill="#FDFEFE" opacity="1.000000" stroke="none" 
	d="
M454.166443,1122.773804 
	C454.401031,1122.763306 454.676697,1123.063599 454.989410,1123.674316 
	C454.753510,1123.684692 454.480530,1123.384766 454.166443,1122.773804 
z"/>
<path fill="#FDFEFE" opacity="1.000000" stroke="none" 
	d="
M835.592896,517.277283 
	C857.884033,528.440247 869.023804,551.302307 863.363220,573.748535 
	C857.621094,596.518066 836.651672,612.840149 813.902954,611.560791 
	C792.890808,610.379089 777.374329,600.068420 769.629028,580.449280 
	C761.832642,560.700867 765.632263,542.110352 780.802673,527.181763 
	C795.309998,512.905640 813.024292,509.456573 832.468750,516.005859 
	C833.413818,516.324158 834.326965,516.736755 835.592896,517.277283 
z"/>
<path fill="#CEE2EC" opacity="1.000000" stroke="none" 
	d="
M728.545044,677.080566 
	C720.538696,677.304443 712.071289,677.437134 703.315308,677.271729 
	C711.379211,676.979004 719.731506,676.984253 728.545044,677.080566 
z"/>
<path fill="#CEE2EC" opacity="1.000000" stroke="none" 
	d="
M956.726929,677.630981 
	C952.138489,677.910706 947.395203,677.789490 942.326111,677.420044 
	C946.857544,677.191284 951.714783,677.210632 956.726929,677.630981 
z"/>
<path fill="#CEE2EC" opacity="1.000000" stroke="none" 
	d="
M760.555237,677.081055 
	C757.548157,677.334778 754.090210,677.497742 750.316223,677.416260 
	C753.368286,677.111328 756.736267,677.050842 760.555237,677.081055 
z"/>
<path fill="#CEE2EC" opacity="1.000000" stroke="none" 
	d="
M792.555237,677.081055 
	C789.548157,677.334778 786.090210,677.497742 782.316223,677.416321 
	C785.368286,677.111389 788.736267,677.050842 792.555237,677.081055 
z"/>
<path fill="#CEE2EC" opacity="1.000000" stroke="none" 
	d="
M808.555237,677.081055 
	C805.548157,677.334778 802.090210,677.497742 798.316223,677.416260 
	C801.368286,677.111389 804.736267,677.050842 808.555237,677.081055 
z"/>
<path fill="#CEE2EC" opacity="1.000000" stroke="none" 
	d="
M824.555237,677.081055 
	C821.548157,677.334778 818.090210,677.497742 814.316223,677.416260 
	C817.368286,677.111389 820.736267,677.050842 824.555237,677.081055 
z"/>
<path fill="#CEE2EC" opacity="1.000000" stroke="none" 
	d="
M840.555237,677.081055 
	C837.548157,677.334778 834.090210,677.497742 830.316223,677.416260 
	C833.368286,677.111328 836.736267,677.050842 840.555237,677.081055 
z"/>
<path fill="#CEE2EC" opacity="1.000000" stroke="none" 
	d="
M776.555237,677.081055 
	C773.548157,677.334778 770.090210,677.497742 766.316223,677.416321 
	C769.368286,677.111389 772.736267,677.050903 776.555237,677.081055 
z"/>
<path fill="#CEE2EC" opacity="1.000000" stroke="none" 
	d="
M856.555237,677.081116 
	C853.548157,677.334839 850.090210,677.497803 846.316223,677.416382 
	C849.368286,677.111389 852.736267,677.050842 856.555237,677.081116 
z"/>
<path fill="#CEE2EC" opacity="1.000000" stroke="none" 
	d="
M872.555237,677.081055 
	C869.548157,677.334778 866.090210,677.497742 862.316223,677.416321 
	C865.368286,677.111389 868.736267,677.050842 872.555237,677.081055 
z"/>
<path fill="#CEE2EC" opacity="1.000000" stroke="none" 
	d="
M888.555237,677.081055 
	C885.548157,677.334778 882.090210,677.497742 878.316223,677.416260 
	C881.368286,677.111389 884.736267,677.050842 888.555237,677.081055 
z"/>
<path fill="#CEE2EC" opacity="1.000000" stroke="none" 
	d="
M904.555237,677.081055 
	C901.548157,677.334839 898.090210,677.497803 894.316223,677.416321 
	C897.368286,677.111328 900.736267,677.050842 904.555237,677.081055 
z"/>
<path fill="#CEE2EC" opacity="1.000000" stroke="none" 
	d="
M920.555237,677.081055 
	C917.548157,677.334778 914.090210,677.497742 910.316223,677.416260 
	C913.368286,677.111328 916.736267,677.050842 920.555237,677.081055 
z"/>
<path fill="#CEE2EC" opacity="1.000000" stroke="none" 
	d="
M936.555237,677.081055 
	C933.548157,677.334778 930.090210,677.497742 926.316223,677.416321 
	C929.368286,677.111389 932.736267,677.050842 936.555237,677.081055 
z"/>
<path fill="#CEE2EC" opacity="1.000000" stroke="none" 
	d="
M744.555237,677.081055 
	C741.548157,677.334778 738.090210,677.497742 734.316223,677.416260 
	C737.368286,677.111389 740.736267,677.050842 744.555237,677.081055 
z"/>
<path fill="#CEE2EC" opacity="1.000000" stroke="none" 
	d="
M565.396851,706.972412 
	C567.455933,706.286194 569.908508,705.643372 572.780396,705.063477 
	C570.729980,705.756226 568.260193,706.386047 565.396851,706.972412 
z"/>
<path fill="#CEE2EC" opacity="1.000000" stroke="none" 
	d="
M702.753784,604.676147 
	C702.534607,604.434204 702.437744,603.868774 702.527954,603.149902 
	C702.768799,603.448547 702.822510,603.900635 702.753784,604.676147 
z"/>
<path fill="#B0BED7" opacity="1.000000" stroke="none" 
	d="
M956.125366,702.679688 
	C956.000610,702.335815 956.204651,702.160278 956.680908,702.004395 
	C956.708984,702.208374 956.542725,702.483032 956.125366,702.679688 
z"/>
<path fill="#FFFEFC" opacity="1.000000" stroke="none" 
	d="
M1072.831665,1323.815674 
	C1097.618774,1301.184814 1135.250854,1307.869995 1150.711060,1337.144531 
	C1159.493774,1353.774658 1158.021851,1376.087646 1143.839233,1391.968872 
	C1129.579346,1407.936279 1112.273560,1412.322388 1092.463989,1406.968018 
	C1070.057129,1400.911377 1054.674194,1377.813110 1057.285767,1355.125732 
	C1058.669556,1343.105835 1063.455933,1332.437622 1072.831665,1323.815674 
z"/>
<path fill="#FFF7D5" opacity="1.000000" stroke="none" 
	d="
M1218.937500,1326.359863 
	C1220.024780,1331.084473 1221.557617,1336.168823 1217.725342,1340.975830 
	C1217.811890,1336.270264 1218.252319,1331.469238 1218.937500,1326.359863 
z"/>
</svg>